<?xml version="1.0" standalone="no"?>
<!DOCTYPE svg PUBLIC "-//W3C//DTD SVG 1.1//EN" "http://www.w3.org/Graphics/SVG/1.1/DTD/svg11.dtd" >
<svg xmlns="http://www.w3.org/2000/svg">
<metadata></metadata>
<defs>
<font id="highlander_itc_ttbold" horiz-adv-x="1214" >
<font-face units-per-em="2048" ascent="1638" descent="-410" />
<missing-glyph horiz-adv-x="454" />
<glyph horiz-adv-x="2048" />
<glyph horiz-adv-x="2048" />
<glyph unicode="&#xd;" horiz-adv-x="454" />
<glyph unicode=" "  horiz-adv-x="454" />
<glyph unicode="&#x09;" horiz-adv-x="454" />
<glyph unicode="&#xa0;" horiz-adv-x="454" />
<glyph unicode="!" horiz-adv-x="796" d="M178 98q0 70 78 120t188 50q74 0 124 -42t50 -103q0 -68 -73.5 -125t-161.5 -57q-86 0 -145.5 46t-59.5 111zM205 532q0 563 14 754q4 57 25.5 72.5t99.5 17.5q18 0 141 8q33 2 50 2q39 0 47 -22q6 -12 6 -57v-27q-2 -23 -2 -33l-19 -827q0 -59 -14 -69.5t-90 -12.5 l-90 -2q-10 0 -31 -2h-25q-68 0 -86 6t-22 29q-4 41 -4 163z" />
<glyph unicode="&#x22;" d="M283 1155q0 207 16 250q8 23 45 22l76 3q25 0 50 2l26 2q47 0 57 -43q4 -12 4 -82q0 -352 -39 -451q-12 -33 -82 -33q-133 0 -145 23q-8 14 -8 307zM662 901q0 2 4 78q6 115 6 211q0 76 -2 104.5t-2 57.5q0 61 28 75q18 8 113 9q96 0 113.5 -15.5t17.5 -99.5 q-2 -45 -14 -270q-8 -164 -22.5 -195t-84.5 -31q-129 0 -143 15.5t-14 60.5z" />
<glyph unicode="#" d="M-10 350q0 29 12 79t23 65q16 23 55 22q33 0 63.5 -2t59.5 -2q45 184 71 311q-41 0 -102 -4h-22q-39 0 -39 33q0 61 28 137q12 33 80 33q2 0 21.5 -2t54.5 -2h27q2 14 20 88q10 39 17.5 81t27 50t125.5 8q57 0 80.5 -6t23.5 -29q0 -31 -43 -174l-6 -20h246l4 10 q4 27 31 160q8 45 24.5 52t102.5 7q84 0 76 0q57 -4 57 -33q0 -8 -6 -26l-2 -10q-27 -92 -41 -160q23 0 55 2q55 2 39 2q70 0 70 -35q0 -20 -11.5 -74.5t-17.5 -64.5q-12 -23 -80 -23q-31 0 -96 2q-39 -176 -72 -305h58q66 0 82 -6t16 -31q0 -82 -29 -139q-8 -14 -21.5 -16 t-99.5 -4q-18 0 -37 -2h-22q-25 -92 -41 -170q-10 -47 -28.5 -55.5t-118.5 -8.5q-68 0 -88.5 7t-20.5 28q0 10 51 201h-100l-146 -5q-41 -201 -47 -210q-12 -20 -123 -21q-78 0 -73 0q-53 4 -54 33q0 6 9 37q6 25 20 75l12 54l9 26h-56q-18 -2 -35 -2q-74 0 -73 39zM444 510 l258 2q33 122 80 315q-78 0 -262 -4l-6 -28l-33 -127q-18 -70 -37 -158z" />
<glyph unicode="$" d="M137 156q0 18 56 129q31 61 47 61q6 0 20 -6q141 -61 254 -72q10 209 31 320q-207 96 -287 181t-80 206q0 166 118 269.5t306 101.5q4 88 4 77q-2 45 10.5 54.5t49.5 7.5l69 -2q14 -2 15 -35q0 -43 -9 -109q123 -18 238 -61q63 -25 63 -47q0 -6 -26 -92q-29 -94 -51 -95 q-2 0 -19 5q-74 29 -219 67q-12 -176 -25 -258q217 -102 296 -189t79 -220q0 -236 -205 -357q-88 -51 -235 -65q-2 -43 -2 -82q0 -55 -3 -65.5t-20 -12.5q-23 -4 -75 -4q-47 0 -48 33q0 53 9 135q-131 10 -246 50t-115 75zM473 1034q0 -57 94 -114q15 93 19 206 q-113 -12 -113 -92zM651 270q131 35 131 131q0 68 -106 125q-20 -143 -25 -256z" />
<glyph unicode="%" horiz-adv-x="1488" d="M33 1044q0 135 96 217t258 82q139 0 219 -71.5t80 -196.5q0 -133 -95 -220t-243 -87q-139 0 -227 77t-88 199zM274 1049q0 -102 91 -103q104 0 104 123q0 106 -90 107q-104 0 -105 -127zM279 -6q0 12 20 49l47 84q84 168 293 578l178 344q43 82 127 245q86 178 119 179 q14 0 88 -43q59 -36 59 -54q0 2 -561 -1100l-110 -217q-59 -115 -74.5 -139t-30.5 -24q-20 0 -84 38q-72 43 -71 60zM805 287q0 137 96 216t266 79q137 0 213 -72t76 -205q0 -131 -95 -215t-243 -84q-141 0 -227 77t-86 204zM1044 285q0 -100 95 -101q102 0 102 123 q0 106 -88 107q-47 0 -78 -37t-31 -92z" />
<glyph unicode="&#x26;" horiz-adv-x="1343" d="M109 334q0 68 22.5 120t122.5 203q39 59 39 97q0 29 -35 118q-51 133 -51 203q0 127 110 223q119 104 304 105q156 0 315 -64q74 -29 74 -55q0 -18 -43 -131q-29 -74 -54 -74q-12 0 -51 19q-106 51 -192 51q-59 0 -100.5 -33t-41.5 -82q0 -41 41 -131l4 -8 q39 -84 39 -127q0 -47 -82 -170q-68 -102 -67 -180q0 -66 49 -109t125 -43q109 0 191.5 89t97.5 223q-72 -82 -140 -82q-55 0 -116.5 43t-61.5 82q0 16 15 16q4 0 22 -4h14q45 0 90.5 36t147.5 150q158 178 270 178q70 0 127.5 -50t57.5 -91q0 -27 -25 -27q-6 0 -41 9 q-16 4 -26 4q-29 0 -50.5 -12.5t-91.5 -67.5q47 -106 47 -230q0 -236 -175 -405.5t-417 -169.5q-190 0 -327 111.5t-137 265.5z" />
<glyph unicode="'" horiz-adv-x="796" d="M256 1155q0 207 16 250q8 23 45 22l76 3q25 0 51 2l25 2q47 0 57 -43q4 -12 4 -82q0 -352 -38 -451q-12 -33 -82 -33q-133 0 -146 23q-8 14 -8 307z" />
<glyph unicode="(" horiz-adv-x="829" d="M109 500q0 449 346 997q113 180 157 217q18 14 41 15q29 0 127 -31q47 -15 47 -31q0 -12 -22 -47q-160 -242 -264 -514q-123 -324 -123 -582q0 -377 200 -825q4 -12 5 -16q0 -16 -33 -31q-14 -8 -41 -23q-49 -29 -80 -28q-49 0 -129 137q-231 397 -231 762z" />
<glyph unicode=")" horiz-adv-x="829" d="M39 -315q0 14 22 51q131 217 209 459q109 340 109 649q0 424 -209 792q-8 10 -8 23q0 18 64.5 53t99.5 35q37 0 123 -139q237 -387 237 -752q0 -414 -283 -987q-66 -131 -143 -244q-27 -37 -55 -37q-23 0 -115 50q-51 27 -51 47z" />
<glyph unicode="*" d="M256 1143q0 -2 23 65l14 43q14 41 43 41q41 0 190 -90q-6 98 -6 129q0 63 11.5 76.5t64.5 13.5t91 -4t38 -45q0 -37 -25 -139q127 113 162 113q20 0 39 -37q4 -10 49 -88q8 -15 8 -25q0 -23 -57 -41q-49 -16 -135 -55q178 -55 178 -82q0 -16 -8 -33l-16 -43l-13 -37 q-12 -37 -30 -37t-177 103q6 -80 7 -109q0 -76 -13.5 -90t-85.5 -14q-94 0 -106 20q-6 10 -6 29q0 20 4 41q6 31 14 98q-10 -10 -20.5 -18t-38.5 -35q-53 -51 -80 -51q-18 0 -35 37q-10 29 -27 49q-31 51 -30 65q0 20 39 35q70 27 104 43q-51 18 -110.5 30.5t-59.5 41.5z " />
<glyph unicode="+" d="M102 598v20l4 60q6 78 15.5 91t64.5 13q45 4 197 4h111v43q2 39 2 74q2 188 6 233.5t28 45.5q-8 0 70 -4q98 -4 115.5 -14.5t17.5 -57.5v-21q-2 -20 -2 -32l-6 -267l221 2q121 2 92 3q72 -2 72 -33q0 -6 -6 -133q-2 -41 -15.5 -50.5t-70.5 -9.5h-297l-8 -344 q0 -51 -35 -51q-16 0 -25 2l-63 4q-82 6 -95.5 16.5t-13.5 67.5q0 168 4 258l2 45h-333q-51 0 -52 35z" />
<glyph unicode="," horiz-adv-x="638" d="M-23 -305q0 18 35 55q121 131 172 395q10 49 26.5 62.5t65.5 13.5q90 0 189 -20q59 -12 59 -39q0 -33 -37 -139q-76 -219 -276 -326q-104 -55 -182 -55q-51 0 -52 53z" />
<glyph unicode="-" horiz-adv-x="880" d="M68 422q0 125 8 166q2 29 23.5 36t103.5 7q123 0 200.5 2t196.5 2q16 0 62 -2q37 -2 59 -2l47 2q43 2 43 -31q0 -143 -11.5 -180t-58.5 -37q-16 0 -41 2q-35 2 -100 2l-143 -2q-72 0 -217 -2l-117 -2q-55 0 -55 39z" />
<glyph unicode="." horiz-adv-x="638" d="M96 98q0 72 80 133.5t172 61.5q74 0 135.5 -53.5t61.5 -114.5q0 -66 -69.5 -120t-156.5 -54q-86 0 -154.5 45t-68.5 102z" />
<glyph unicode="/" horiz-adv-x="776" d="M76 -131q51 217 237 977l148 602q8 33 14 40t27 7q14 0 166 -31q32 -5 32 -30q0 -18 -16 -82q-35 -133 -72 -285l-227 -936q-16 -70 -49 -201q-8 -37 -14 -71q-14 -49 -41 -49q-14 0 -148 26q-41 8 -49 12.5t-8 20.5z" />
<glyph unicode="0" d="M59 684q0 383 230 592q150 137 358 137q188 0 305 -121q201 -206 201 -587q0 -332 -156.5 -541t-406.5 -209q-227 0 -379 209t-152 520zM449 664q0 -197 47 -316q39 -96 127 -96q100 0 145 135q43 127 43 328q0 242 -68 350q-41 66 -114 65q-102 0 -146 -143 q-35 -117 -34 -323z" />
<glyph unicode="1" d="M244 1106q0 61 13 81.5t77 53.5q90 47 180 105q66 41 88.5 48t95.5 7q113 0 138.5 -7t25.5 -36q0 2 -2 -53q-4 -61 -6 -154l-18 -872q-2 -86 -2 -175q0 -78 -15.5 -91t-107.5 -13q-131 0 -199 2q-43 2 -53 23q-8 14 -6 65l20 952q-174 -111 -207 -110q-16 0 -19 22.5 t-3 151.5z" />
<glyph unicode="2" d="M63 43q0 90 121 285q109 174 389 495q115 131 115 230q0 51 -38 83.5t-97 32.5q-100 0 -244 -102q-12 -8 -24 -8q-14 0 -66 88q-45 78 -45 88q0 37 129 106q137 74 311 74q201 0 327 -101.5t126 -264.5q0 -102 -51 -193.5t-197 -245.5q-199 -211 -276 -331q104 6 399 6 q80 0 95.5 -3t23.5 -25.5t8 -172.5q0 -59 -22.5 -71.5t-128.5 -14.5l-125 -2l-373 -2q-305 -2 -331 7t-26 42z" />
<glyph unicode="3" d="M76 88q0 27 45 141q23 57 43 58q12 0 57 -17q125 -45 209 -45q113 0 182.5 63.5t69.5 166.5q0 197 -246 198q-59 0 -73.5 6.5t-14.5 32.5q0 4 6 74l4 47q4 45 11.5 58.5t29.5 13.5q96 4 144 26q94 45 94 138q0 111 -127 110q-74 0 -182 -74q-43 -29 -54 -28q-20 0 -59 67 q-57 98 -57 113q0 33 92 84q160 90 325 90q193 0 313 -93t120 -245q0 -172 -177 -291q226 -73 226 -321q0 -207 -156 -353.5t-377 -146.5q-166 0 -350 59q-98 31 -98 68z" />
<glyph unicode="4" d="M31 618q0 39 172 246q295 354 403 459q55 53 121 51l234 -4q39 -4 38 -76q0 -43 -12 -649q37 2 143 2q31 0 42.5 -12t11.5 -55q0 16 -2 -58l-2 -73q-2 -45 -12.5 -60.5t-53.5 -15.5l-133 2q-4 -170 -10 -355q-4 -16 -52.5 -20t-242.5 -4q-49 0 -61.5 12t-12.5 62 q0 190 6 307l-364 -6q-98 0 -111 4q-29 2 -51 82q-14 49 -29 86q-23 57 -22 75zM350 649l172 2q61 0 111 -2q2 84 6 383z" />
<glyph unicode="5" d="M117 57q0 8 16 60q10 29 27 92q10 45 35 45q8 0 20 -4q86 -27 170 -27q158 0 255 86t97 228q0 160 -147 159q-25 0 -66 -8l-2 -24q-4 -57 -11 -64.5t-105 -7.5q-90 0 -162 4q-31 2 -41 22q-4 12 -4 50q0 23 14 405l6 164q4 96 13.5 117.5t50.5 21.5q252 6 475 6 q238 0 262 -8t24 -41q0 -106 -6 -176q-4 -39 -17 -48t-69 -9q-51 0 -405 6q-12 -152 -15 -207q72 23 140 23q182 0 304 -121t122 -303q0 -223 -169 -380t-411 -157q-182 0 -352 49q-49 14 -49 47z" />
<glyph unicode="6" d="M109 473q0 285 337 744q156 211 201 210q25 0 148 -43q90 -31 90 -49q0 -6 -111 -174q-82 -125 -166 -301q80 25 133 25q164 0 279 -126t115 -308q0 -211 -142.5 -350.5t-361.5 -139.5q-221 0 -371.5 147.5t-150.5 364.5zM475 444q0 -88 44 -141t116 -53q78 0 129 60.5 t51 150.5q0 178 -174 178q-68 0 -137 -35q-29 -90 -29 -160z" />
<glyph unicode="7" d="M133 1114q0 186 21 229q10 23 114.5 27t241.5 4q317 0 491 -8q45 -2 52 -4q28 -6 28 -31q0 -53 -370 -1055q-104 -283 -120 -306t-46 -23q-57 0 -189 28q-33 6 -65 13q-43 12 -43 37q0 27 393 1052l-313 -8q-135 -4 -165 4t-30 41z" />
<glyph unicode="8" d="M104 338q0 238 277 383q-199 131 -199 319q0 158 134.5 263.5t338.5 105.5q199 0 320 -90t121 -240q0 -193 -234 -344q133 -76 191.5 -161.5t58.5 -206.5q0 -178 -139 -292t-357 -114q-227 0 -369.5 104.5t-142.5 272.5zM446 346q0 -61 45.5 -104t110.5 -43 q63 0 108.5 42t45.5 101q0 102 -156 221q-154 -102 -154 -217zM551 1083q0 -96 104 -194q133 102 133 192q0 115 -114 115q-51 0 -87 -33t-36 -80z" />
<glyph unicode="9" d="M88 956q0 195 145.5 325t364.5 130q217 0 354.5 -138.5t137.5 -357.5q0 -289 -322 -763q-88 -131 -123 -170t-63 -39q-25 0 -129 24q-49 18 -117 31q-59 10 -60 33q0 6 41 51q209 231 322 487q-82 -41 -164 -41q-164 0 -275.5 123t-111.5 305zM418 958q0 -76 50 -124 t128 -48q66 0 119 37q12 56 12 107q0 88 -45 142t-119 54q-63 0 -104 -48t-41 -120z" />
<glyph unicode=":" horiz-adv-x="638" d="M102 98q0 72 80 133.5t172 61.5q74 0 135.5 -53.5t61.5 -114.5q0 -66 -69.5 -120t-155.5 -54t-155 45t-69 102zM133 629q0 72 78 133t172 61q74 0 133 -52.5t59 -115.5q0 -68 -69.5 -123t-153.5 -55q-90 0 -154.5 44t-64.5 108z" />
<glyph unicode=";" horiz-adv-x="638" d="M-14 -305q0 16 34 55q131 145 177 393q10 51 25.5 64.5t64.5 13.5q41 0 176 -22l33 -6q36 -6 36 -33q0 -57 -38.5 -151.5t-92.5 -160.5q-98 -125 -262 -182q-70 -25 -102 -24q-16 0 -33.5 17t-17.5 36zM164 629q0 72 77.5 133t168.5 61q72 0 128 -51t56 -117 q0 -72 -68.5 -126t-160.5 -54q-82 0 -141.5 45t-59.5 109z" />
<glyph unicode="&#x3c;" horiz-adv-x="1019" d="M68 526v310l884 485v-369l-491 -272l491 -270v-371z" />
<glyph unicode="=" d="M102 442q0 115 13 146q8 12 51 16q55 4 250 4h67q43 -2 84 -2h221q47 0 97 2h53q127 0 149.5 -4t22.5 -24v-9l-2 -34q-2 -47 -6 -103q-4 -18 -21.5 -23t-74.5 -5l-850 -3q-43 0 -50 15q-4 8 -4 24zM102 780q0 8 7 111q2 35 11 43t46 10q92 4 252 4h61q51 -2 88 -2h221 q47 0 97 2h59q117 0 141.5 -4t24.5 -24v-9l-2 -37q-4 -88 -10 -105t-33 -21q-35 -4 -797 -5h-131q-35 0 -35 37z" />
<glyph unicode="&#x3e;" horiz-adv-x="1019" d="M68 39v371l491 270l-491 272v369l884 -485v-310z" />
<glyph unicode="?" horiz-adv-x="991" d="M109 1280q0 37 110 84q158 68 303 68q168 0 285 -98.5t117 -239.5q0 -121 -146 -285q-117 -131 -144.5 -186.5t-43.5 -190.5q-8 -63 -13.5 -73.5t-29.5 -14.5q-61 -8 -221 -8q-53 0 -66.5 7t-13.5 34q0 86 27.5 184t82.5 193q23 37 123 176q57 84 58 131q0 49 -36 83 t-89 34q-66 0 -164 -56q-43 -25 -55 -24q-14 0 -48 73q-37 84 -36 109zM207 100q0 70 76.5 119t183.5 49q76 0 125 -41t49 -104q0 -76 -66.5 -129t-158.5 -53t-150.5 45t-58.5 114z" />
<glyph unicode="@" horiz-adv-x="1513" d="M66 621q0 326 230 547t570 221q262 0 421 -143.5t159 -381.5q0 -215 -131 -370.5t-314 -155.5q-164 0 -163 162q0 20 2 41q-121 -188 -269 -189q-84 0 -133 59.5t-49 159.5q0 113 61.5 216.5t165.5 166.5q119 72 297 72q225 0 226 -70q0 -14 -47 -254q-10 -59 -35 -176 q-4 -25 -4 -30q0 -20 14 -21q61 0 131 137q55 109 55 256q0 156 -92 244q-119 113 -305 113q-244 0 -414 -175.5t-170 -424.5q0 -225 139.5 -355.5t379.5 -130.5q199 0 378 99q31 16 39 16q14 0 39 -36t25 -58q0 -33 -135 -101q-174 -86 -392 -86q-307 0 -493 177.5 t-186 470.5zM604 571q0 -57 35 -57q66 0 144.5 101.5t125.5 248.5h-20q-119 0 -202 -98t-83 -195z" />
<glyph unicode="A" horiz-adv-x="1370" d="M-82 39q0 29 247 517t355 673q55 94 88 122.5t111 49.5q88 24 153 24h5q31 0 57.5 -64.5t148.5 -432.5q281 -846 281 -879q0 -23 -20.5 -30t-141.5 -25q-152 -23 -203 -23q-20 0 -28 11.5t-25 66.5l-82 268q-45 0 -231 2q-84 0 -225 7l-142 -316q-23 -43 -55 -43 q-111 0 -240 35q-53 14 -53 37zM512 582l35 -2h110h-3q0 -1 141 -5q-4 16 -13 48q-29 98 -102 348q-35 -96 -150 -348z" />
<glyph unicode="B" horiz-adv-x="1320" d="M102 66q0 20 2 79l33 1033q4 147 23 174q24 34 111 34h5q438 0 579.5 -32.5t227.5 -131t86 -225.5q0 -207 -223 -301q133 -27 209 -82q125 -92 125 -239q0 -152 -117 -256q-82 -74 -190.5 -101.5t-321.5 -27.5q-113 0 -272 4l-160 4q-70 2 -93.5 15.5t-23.5 52.5z M500 225q49 -8 104 -8q141 0 214 60.5t73 140.5q0 72 -69.5 114.5t-188.5 42.5q-33 0 -119 -6q-2 -262 -14 -344zM514 803q47 -6 70 -6q104 0 157 26q97 50 97 154q0 82 -63.5 128t-174.5 46q-31 0 -72 -8q-4 -92 -14 -340z" />
<glyph unicode="C" horiz-adv-x="1415" d="M66 608q0 389 360 623q244 158 584 158q270 0 321 -56q12 -12 12 -47q0 -84 -10 -162q-6 -47 -35 -47q-12 0 -20 2q-160 18 -229 19q-256 0 -414 -136.5t-158 -357.5q0 -176 93.5 -278.5t254.5 -102.5q188 0 394 127q70 43 84 43q18 0 61 -84q53 -104 53 -131 q0 -49 -192 -141q-231 -111 -459 -111q-307 0 -503.5 191.5t-196.5 490.5z" />
<glyph unicode="D" horiz-adv-x="1452" d="M102 504q0 160 11 676q2 113 9 145.5t30 40.5q33 12 219 12q362 0 522 -47q229 -68 362.5 -243.5t133.5 -411.5q0 -248 -144.5 -424t-388.5 -227q-137 -29 -457 -29q-205 0 -262 14q-29 8 -31 96l-2 99q-2 98 -2 299zM498 270q39 -4 77 -4q188 0 296 109.5t108 302.5 t-106.5 312.5t-278.5 119.5q-33 0 -82 -8z" />
<glyph unicode="E" horiz-adv-x="1167" d="M102 74q0 -10 4 383q0 78 9 434l12 450q2 23 19.5 29t76.5 6h27q299 0 573 -4l138 -2q63 0 69 -2q39 -8 39 -43q0 -33 -14 -156q-6 -45 -16.5 -54t-55.5 -9h-49q-43 0 -70.5 2t-32.5 2h-317l-2 -145l-4 -103v-33q137 8 424 9q70 0 82 -5.5t12 -35.5q0 -129 -16 -193 q-4 -16 -42 -19t-241 -3h-221v-31q0 -178 -6 -289q129 4 528 4q61 0 71.5 -3t12.5 -23q2 -31 2 -160q0 -55 -13.5 -65.5t-88.5 -14.5q-41 -2 -293 -2q-68 0 -115 -2h-74h-133q-254 0 -274.5 8t-20.5 70z" />
<glyph unicode="F" horiz-adv-x="991" d="M102 59v84v50q2 72 2 151l9 893q2 103 16 121q13 16 82 16h16h47q57 2 156 2h225q305 0 324 -14q12 -11 12 -111q0 -111 -11 -131t-69 -20h-63q-23 0 -47 2h-33q-201 0 -266 -4q-2 -39 -6 -154q-4 -78 -4 -135q78 0 155 2q14 0 98 2l95 2h14q72 0 86 -20q6 -12 6 -37 q0 -147 -10 -191q-8 -30 -74 -30h-4q-31 0 -147 4q-59 2 -119 2q-31 0 -107 -2l-4 -113q-6 -168 -6 -350q0 -53 -10 -66.5t-55 -13.5q-211 0 -254 4q-35 4 -44.5 13.5t-9.5 43.5z" />
<glyph unicode="G" horiz-adv-x="1513" d="M63 608q0 334 270.5 558.5t670.5 224.5q162 0 344 -37q45 -8 45 -39q0 -47 -45 -195q-12 -43 -58 -43q-23 0 -90 10q-82 12 -162 13q-248 0 -405.5 -138.5t-157.5 -355.5q0 -172 96.5 -278.5t253.5 -106.5q115 0 222 58v28l2 119l2 37q-8 0 -97 -4q-47 -2 -55 -2 q-90 0 -110.5 8t-20.5 43q0 82 18 174q6 33 25.5 40t108.5 7l362 2q16 0 37 -2h29l51 2h4q43 0 53 -39v-84q0 -266 -10 -307q-8 -197 -16 -217q-8 -33 -60 -33q-193 -2 -340 -51q-209 -70 -313 -70q-270 0 -462 199t-192 479z" />
<glyph unicode="H" horiz-adv-x="1488" d="M102 49v14q0 12 2 64.5t2 79.5l27 979q4 127 11.5 154.5t37.5 29.5q47 4 166 4q115 0 150 -8q20 -4 20 -57q0 -49 -4 -203q-2 -49 -4 -213q133 4 477 8q2 84 6 211l4 162q2 72 13.5 86t66.5 14l244 -2q65 0 65 -47q0 6 -4 -123q-8 -160 -12 -346l-18 -760 q-2 -70 -14.5 -84t-73.5 -14h-37h-62q-49 2 -90 2q-80 0 -94 6q-23 8 -23 45q0 154 13 449l4 98q-35 2 -80 2q-86 0 -140.5 -2t-109.5 -2q-61 0 -143 2l-4 -88l-13 -414q-2 -68 -9 -83t-42 -15h-158q-129 0 -151.5 7t-22.5 44z" />
<glyph unicode="I" horiz-adv-x="632" d="M102 78v-3l2 87l5 209q4 207 20 798l4 115q2 68 12.5 81t63.5 13q-2 0 254 -8q47 -2 58 -9t11 -36v1q-1 0 -14 -400q-14 -412 -20 -875q0 -35 -15.5 -43t-50.5 -8h-90q-18 0 -39 -2h-29q-145 0 -158.5 10t-13.5 70z" />
<glyph unicode="J" horiz-adv-x="675" d="M-324 -301q0 57 19 111q14 43 55 45q201 10 292 93t105.5 273.5t24.5 1031.5q0 66 7 87.5t32 27.5q35 8 178 8q152 0 168 -13t16 -136q0 -57 -10 -615q-8 -426 -51 -551q-141 -405 -641 -405h-2q-131 0 -174 14q-18 6 -19 29z" />
<glyph unicode="K" horiz-adv-x="1396" d="M102 162v-3q1 0 7 175l8 264l18 674q2 41 6 59q8 33 34 42t163 9q139 0 165.5 -9t26.5 -54q0 -86 -18 -506q127 141 393 426q104 106 131 130t49 24q23 0 156 -56q100 -41 100 -57q0 -14 -48 -62.5t-124 -130.5q-61 -61 -184 -188l-182 -188q348 -309 461 -422 q153 -152 153 -166q0 -23 -43 -41q-57 -27 -137 -64q-117 -53 -139 -53q-20 0 -58 41q-43 47 -323 322q-72 72 -213 198l-4 -153q-2 -76 -2 -183q0 -158 -17.5 -177t-169.5 -19h-24q-27 2 -51 2h-50q-68 0 -77 31q-6 12 -7 135z" />
<glyph unicode="L" horiz-adv-x="1013" d="M102 111q0 590 35 1083q10 147 27 162q10 12 90 14l96 2h51q90 0 112 -7t22 -34q0 -152 -29 -774q-8 -178 -8 -274l311 4q126 1 126 3q0 1 -20 1q80 -2 89.5 -32t9.5 -165q0 -70 -18.5 -85t-98.5 -15q-35 0 -235 6q-68 2 -132 2q-6 0 -70.5 -3t-185.5 -3h-71 q-74 0 -87.5 15.5t-13.5 99.5z" />
<glyph unicode="M" horiz-adv-x="1773" d="M51 172q16 100 47 289q111 672 140 831q10 57 21 70.5t50 17.5t158 4q121 0 138.5 -9t34.5 -53t105 -298q74 -209 162 -487q266 684 318 788q20 41 67 47q98 12 219 12q53 0 68.5 -18t24.5 -92q16 -147 50 -640t34 -581q0 -33 -9.5 -43t-44.5 -12l-123 -10 q-88 -6 -129 -6q-47 0 -56 26.5t-9 163.5q-2 397 -14 627q-8 -18 -25 -54l-70 -165q-156 -373 -256 -496q-74 -90 -188 -90q-39 0 -78 110l-53 154q-47 137 -182 551q-29 -174 -43 -293l-50 -383q-14 -104 -34.5 -121.5t-130.5 -17.5q-43 0 -107 2q-18 0 -31 4q-24 6 -24 37 q0 14 20 135z" />
<glyph unicode="N" horiz-adv-x="1585" d="M102 68v20q2 20 2 35l2 180q10 864 31 1028q4 33 31 40t147 7h52l77 -2q45 -2 61.5 -8t39.5 -33q276 -328 555 -708q23 -31 35 -45l4 108q6 172 14 545q0 47 2 63q4 49 18.5 62.5t100.5 13.5h72q18 0 43 2h26q41 0 55.5 -13t14.5 -52q0 -135 -31 -744q-6 -113 -12 -432 q0 -53 -8 -115q-16 -28 -74 -28h-12l-103 2h-57q-72 0 -103 37q-29 45 -86 129q-4 6 -84 108q-6 10 -41 56q-59 74 -145 184l-92 119q-39 51 -199 250v-60l-4 -278q-2 -246 -12 -519q-4 -16 -36 -19t-175 -3q-80 0 -94.5 9t-14.5 61z" />
<glyph unicode="O" horiz-adv-x="1687" d="M66 694q0 322 228 523.5t593 201.5q326 0 531.5 -196.5t205.5 -507.5q0 -330 -217 -546t-549 -216q-348 0 -570 208t-222 533zM485 674q0 -207 95.5 -325t263.5 -118q178 0 293.5 137.5t115.5 350.5q0 195 -99 309.5t-269 114.5q-147 0 -256 -90q-143 -119 -144 -379z " />
<glyph unicode="P" horiz-adv-x="1249" d="M102 139q0 387 17 901l6 193q4 113 18.5 129t87.5 16h23q416 0 584 -37q188 -41 296.5 -163.5t108.5 -294.5q0 -260 -217 -404q-145 -96 -397 -96q-51 0 -131 6v-153q0 -164 -4.5 -193t-28.5 -35q-31 -8 -311 -8q-35 0 -43.5 21.5t-8.5 117.5zM502 649q49 -8 82 -8 q137 0 216 67.5t79 186.5q0 113 -78 175.5t-215 62.5q-39 0 -68 -5q-2 -55 -4 -172l-4 -129z" />
<glyph unicode="Q" horiz-adv-x="1689" d="M66 680q0 322 226 526.5t580 204.5q330 0 542 -201t212 -514q0 -195 -75.5 -336t-247.5 -266q129 -211 129 -237q0 -37 -121 -84q-2 0 -36 -16.5t-71 -37.5q-25 -10 -35 -10q-27 0 -51 53q-39 84 -100 207q-96 -26 -188 -26h-7q-324 0 -540.5 211t-216.5 526zM475 674 q0 -203 102.5 -331t266.5 -128q27 0 49 4q-20 35 -39 68q-29 49 -29 69q0 18 14.5 28.5t100.5 55.5q78 41 100 60q16 10 25 10q20 0 45 -55l47 -82q98 143 98 323q0 207 -99 325t-273 118q-184 0 -296 -127t-112 -338z" />
<glyph unicode="R" horiz-adv-x="1298" d="M102 80q0 14 2 76.5t2 103.5l5 322q4 262 14 522l6 145q4 74 15.5 96.5t50.5 26.5q66 6 286 6q324 0 467 -65q260 -119 260 -383q0 -270 -282 -428l268 -273q137 -138 137 -163t-139 -70q-168 -53 -193 -53q-35 0 -73 63q-49 82 -324 408q-63 -6 -110 -6 q-8 -340 -23 -390q-8 -28 -232 -28h-16q-86 0 -103.5 13t-17.5 77zM500 662q145 2 239.5 76.5t94.5 191.5q0 92 -60.5 145t-163.5 53q-51 0 -100 -12v-155z" />
<glyph unicode="S" horiz-adv-x="964" d="M-10 43q0 131 20 182q6 20 39 21q12 0 108.5 -14.5t161.5 -14.5q88 0 143.5 37t55.5 96q0 43 -26.5 76t-165.5 164q-154 143 -205 222t-51 169q0 119 80.5 216t217 141t351.5 44q90 0 106 -2q74 -10 74 -49q0 -136 -18 -190q-12 -25 -37 -25q-18 0 -60.5 5t-64.5 5 q-256 0 -256 -116q0 -35 24.5 -63.5t135.5 -123.5q195 -166 237 -229q64 -93 64 -197q0 -188 -165 -315t-409 -127q-129 0 -295 20q-39 4 -52 17.5t-13 50.5z" />
<glyph unicode="T" horiz-adv-x="1085" d="M-27 1141v47v43q2 23 2 37v26q0 49 13.5 59.5t77.5 12.5q307 10 620 10q248 0 373 -4q45 -2 54 -9t11 -44l2 -55v-45q0 -100 -8 -115q-14 -20 -209 -21q-53 0 -159 2q-35 -530 -37 -989q0 -59 -5.5 -74.5t-25.5 -17.5q-31 -8 -207 -8q-111 0 -135.5 8t-24.5 47q0 4 2 42 t2 71l9 309q6 240 22 617q-295 -9 -295 -11h4h-22q-49 0 -57 21q-6 12 -7 41z" />
<glyph unicode="U" horiz-adv-x="1503" d="M84 733q0 119 16.5 336t30.5 272q8 33 37 38t190 5q113 0 139.5 -7t26.5 -38q0 -23 -28 -325q-23 -238 -23 -406q0 -379 260 -379q246 0 254 295l19 731q2 115 36.5 125.5t178.5 10.5q129 0 141 -2q39 -3 39 -56v-28q-2 -25 -2 -43v-111q0 -86 -4 -250q-6 -229 -11 -424 l-6 -327q0 -35 -27.5 -45.5t-142.5 -20.5q-141 -12 -290 -76q-168 -71 -276 -71h-3q-121 0 -238.5 64.5t-191.5 170.5q-125 182 -125 561z" />
<glyph unicode="V" horiz-adv-x="1280" d="M-33 1317q0 35 125 57q178 31 236 31q41 0 59 -57l37 -121q127 -416 211 -768l268 676q92 207 113.5 241.5t52.5 34.5q12 0 37 -6l68 -16q125 -31 153.5 -41.5t28.5 -26.5q0 -23 -176 -416t-271 -579q-88 -176 -140 -241t-124 -89q-104 -37 -176 -37q-41 0 -63 49 q-4 8 -29 84q-23 70 -53 162l-275 815q-43 127 -76 213q-6 16 -6 35z" />
<glyph unicode="W" horiz-adv-x="1855" d="M-14 1333q0 29 53 43q39 6 76 13q106 18 211 18q45 0 63 -84q6 -29 23 -82q2 -8 10 -43q25 -90 82 -309l102 -436q80 176 201 432q-27 92 -119 409q-4 25 -4 33q0 31 49 43q164 39 279 39q37 0 61 -63q45 -113 217 -879q96 307 211 643q29 96 98 279q14 26 39 26h2 q37 0 138 -20l80 -17q65 -14 65 -45q0 -14 -8 -30l-37 -105q-176 -502 -307 -790q-166 -369 -232.5 -410t-191.5 -41q-55 0 -88 82t-144 496q-113 -270 -241 -476q-43 -70 -111 -88q-74 -20 -133 -20q-37 0 -58.5 39t-70.5 196q-172 551 -281 998q-8 39 -28 106q-6 25 -6 43 z" />
<glyph unicode="X" horiz-adv-x="1323" d="M-76 35q0 29 64 108q39 47 98 133q106 150 377 474q-8 10 -23 32l-227 332q-106 154 -107 178q0 16 29 27q8 4 205 59l66 19q23 8 38 8q33 0 103 -121q23 -39 69 -119l76 -121q10 -14 29 -45q4 6 52 66.5t91 114.5q76 96 156 186q29 33 51 33q23 0 45 -8q33 -12 162 -39 q86 -18 86 -49q0 -20 -49 -78q-131 -164 -406 -480q434 -637 434 -671q0 -23 -102 -54q-195 -59 -250 -59q-31 0 -57 49q-182 334 -283 492q-125 -166 -358 -490q-39 -53 -80 -53q-59 0 -193 31l-53 12q-43 10 -43 33z" />
<glyph unicode="Y" horiz-adv-x="1218" d="M-47 1331q0 23 45 29l203 29q33 4 92 12q29 4 39 4q35 0 65 -55q23 -41 95 -150q31 -47 116 -180q23 -25 39 -59q6 -8 21 -29q111 201 219 368q49 76 63.5 91.5t36.5 15.5q68 0 193 -27q102 -22 102 -47q0 -47 -461 -702q2 -23 2 -41q0 -336 -12 -531q-2 -47 -30.5 -55 t-196.5 -8q-127 0 -143.5 13.5t-16.5 96.5q0 61 6 261q2 94 6 262q-4 6 -190 266q-293 410 -293 436z" />
<glyph unicode="Z" horiz-adv-x="1226" d="M-35 41q0 43 127 221q49 68 201 291q164 242 258 373l80 112q12 20 39 60q-256 -6 -420 -6q-111 0 -132.5 6t-21.5 41t6 86l9 69q6 57 28.5 68.5t120.5 13.5l309 4q145 2 162 2q352 0 430 -8q72 -8 72 -43q0 -20 -25.5 -60t-189.5 -280l-492 -715q446 10 580 11 q80 0 94 -10.5t14 -30.5q0 -27 -24 -170q-10 -55 -24.5 -65.5t-92.5 -10.5l-293 -2l-557 2q-186 0 -222 6t-36 35z" />
<glyph unicode="[" horiz-adv-x="835" d="M160 -317q0 31 49 1636l14 379q8 37 142 37q188 0 274 -2l86 -2q23 0 31 -7q16 -8 16 -41v-55q0 -74 -10 -87t-74 -13q-111 0 -196 4q-16 -424 -31 -864l-31 -850h113q113 0 132 -4t23 -18.5t4 -67.5q0 -70 -4 -88.5t-13 -20.5t-73 -4l-80 -2h-110q-27 0 -55 -2h-31 q-154 0 -165 12t-11 60z" />
<glyph unicode="\" horiz-adv-x="776" d="M76 1436q0 20 33 28q127 31 167 31q18 0 24.5 -11t23.5 -79l362 -1473q14 -55 14 -63q0 -16 -10 -21.5t-69 -17.5q-104 -20 -125 -20q-25 0 -37 34q-2 8 -23 86q-121 451 -240.5 951.5t-119.5 554.5z" />
<glyph unicode="]" horiz-adv-x="835" d="M25 -279q0 68 11 80.5t73 12.5q113 0 194 -4q29 508 39 862l23 852h-113q-111 0 -131.5 4t-24.5 18.5t-4 73.5q0 90 8.5 102.5t167.5 10.5l318 -2q37 0 44 -15.5t7 -60.5v-17q0 -98 -2 -198l-45 -1665q-4 -125 -17 -140q-18 -20 -120 -20q-16 0 -295 4q-100 2 -116.5 7 t-16.5 38v57z" />
<glyph unicode="^" horiz-adv-x="1019" d="M16 692l289 678h412l289 -678h-326l-168 428l-170 -428h-326z" />
<glyph unicode="_" horiz-adv-x="1019" d="M0 -102h1020v-217h-1020v217z" />
<glyph unicode="`" horiz-adv-x="1024" d="M254 1335q0 33 182 33q63 0 78.5 -26.5t52.5 -124.5q54 -146 54 -164q0 -25 -97 -25q-78 0 -95 8t-52 74q-45 76 -92 160l-21 37q-10 18 -10 28z" />
<glyph unicode="a" horiz-adv-x="1073" d="M43 209q0 156 145.5 249t386.5 93h31q-8 88 -46 123t-130 35q-82 0 -192 -21q-23 -4 -31 -4q-27 0 -42 57.5t-15 89.5q0 37 75 58q125 33 258 33q281 0 408 -144q53 -61 73.5 -146t20.5 -251q0 -262 -11 -305t-63 -43h-28q-16 0 -49 2h-41q-117 0 -371 -49 q-53 -10 -113 -11q-125 0 -195.5 62.5t-70.5 171.5zM391 242q0 -82 101 -82q59 0 122 28l4 156q0 35 -2 59q-225 -31 -225 -161z" />
<glyph unicode="b" horiz-adv-x="1196" d="M90 76v24q0 2 21 781l10 383q2 84 15.5 99t88.5 15q178 0 215 -2q16 0 27 -6q20 -8 20 -51v-16l-8 -459q129 69 247 69h3q176 0 294 -123t118 -305q0 -201 -152.5 -354.5t-351.5 -153.5q-43 0 -205 33q-55 10 -237 19q-72 2 -88.5 10t-16.5 37zM459 215q59 -20 110 -20 q92 0 159 83.5t67 198.5q0 100 -50.5 161.5t-130.5 61.5q-57 0 -139 -36q0 -195 -16 -449z" />
<glyph unicode="c" horiz-adv-x="1015" d="M55 434q0 211 157 343t406 132q166 0 340 -67q39 -14 39 -41q0 -35 -26 -142q-12 -49 -33 -49q-12 0 -66 19q-94 33 -178 33q-106 0 -173.5 -66t-67.5 -168q0 -100 65.5 -163.5t169.5 -63.5q109 0 264 84q10 6 17 6q18 0 18 -37q0 -150 -28.5 -186.5t-154.5 -71.5 t-233 -35q-229 0 -372.5 132t-143.5 341z" />
<glyph unicode="d" horiz-adv-x="1196" d="M55 416q0 203 137.5 350t327.5 147q98 0 213 -49l10 422q2 68 25 79t156 11q152 0 170 -16t18 -174q0 -375 -29 -920l-6 -116q-4 -72 -14 -91q-14 -26 -67 -26h-11l-111 2h-7q-94 0 -326 -51q-47 -10 -95 -11q-166 0 -278.5 127t-112.5 316zM401 465q0 -121 60.5 -193.5 t161.5 -72.5q55 0 100 18v51l-2 248q0 76 2 154q-43 26 -98 26h-4q-102 0 -161 -62.5t-59 -168.5z" />
<glyph unicode="e" horiz-adv-x="1134" d="M55 428q0 223 157 357.5t415 134.5q221 0 340.5 -117t119.5 -332q0 -94 -75 -94q-35 0 -82 2q-279 12 -443 12h-30q8 -198 200 -198h2q133 0 363 122q12 6 22 7q14 0 21 -50q10 -78 10 -98q0 -51 -110 -113q-184 -102 -398 -102q-231 0 -371.5 128t-140.5 341zM461 569 l266 -2q4 37 4 49q0 113 -113 113q-125 0 -157 -160z" />
<glyph unicode="f" horiz-adv-x="718" d="M16 664q0 109 4 133q2 41 12.5 50t55.5 9h84q8 203 48 306.5t134 166.5q131 88 369 88q72 0 90 -4q55 -12 55 -57q0 -76 -12 -129q-10 -43 -45 -43q-8 0 -39 2h-10q-127 0 -176 -78q-37 -59 -45 -256q96 0 140 2t50 2q37 0 37 -39q0 -16 -11.5 -89t-15.5 -85t-25.5 -15 t-119.5 -3q-43 0 -68 -2v-41q0 -59 -6 -162q-8 -115 -10 -160l-4 -147q-2 -82 -15.5 -98.5t-74.5 -16.5h-47q-82 0 -183 4q-37 2 -45 9t-8 40t10 301q2 39 7 115l8 156h-31l-57 -2q-33 -2 -44.5 6t-11.5 37z" />
<glyph unicode="g" horiz-adv-x="1101" d="M47 -223q0 66 25.5 106.5t95.5 81.5q-90 74 -90 154q0 119 147 207q-106 100 -106 231q0 160 117.5 261.5t302.5 101.5q190 0 344 -115q117 10 164 16q14 2 28 2q18 0 21.5 -7t7.5 -50q4 -55 4 -96q0 -31 -16 -43q-4 -2 -93 -9l-34 -2q2 -25 2 -49q0 -115 -78 -213 q-117 -147 -330 -147q-127 0 -244 55q-12 -14 -12 -31q0 -37 59.5 -60.5t249.5 -64.5q256 -55 308.5 -69t99.5 -49q82 -59 82 -176q0 -152 -161 -249.5t-409 -97.5q-233 0 -359 81t-126 231zM266 -156q0 -72 104.5 -128t237.5 -56q98 0 160.5 24.5t62.5 61.5q0 31 -51 41 l-73 8q-246 25 -422 101q-18 -29 -19 -52zM432 549q0 -111 107 -111q59 0 100 40t41 97q0 109 -111 109q-59 0 -98 -38t-39 -97z" />
<glyph unicode="h" horiz-adv-x="1171" d="M88 61q0 -2 4 117q4 135 6 240q0 51 6 346q2 172 7 274l6 205q2 94 16 114.5t76 20.5q33 0 65 -2q33 -3 57 -3q12 0 23 1l60 2h9q43 0 52 -18q6 -10 6 -76q0 -111 -8 -438q121 59 240 59q125 0 221 -58.5t125 -152.5q25 -78 28 -319l5 -215q1 -54 1 -83.5t-1 -33.5 q-13 -43 -86 -43h-7q-43 1 -77 1q-69 0 -103 -3q-27 -2 -51 -2q-47 0 -47 59q0 -2 2 92q4 104 4 181l2 153v19q0 91 -18 131q-29 61 -99 61q-53 0 -145 -41l-8 -534q-2 -86 -13.5 -103.5t-68.5 -17.5q10 0 -39 2t-141 2h-45q-41 0 -52.5 11t-11.5 52z" />
<glyph unicode="i" horiz-adv-x="561" d="M92 59q0 18 14 557q2 104 11 226q4 20 94 20h31q25 -2 69 -2h64q78 0 90 -10t12 -76l-10 -553l-2 -110q-2 -63 -7 -83t-28.5 -27t-171.5 -7q-41 0 -113 6q-53 4 -53 59zM127 1135q0 72 74.5 123t179.5 51q76 0 123 -35t47 -92q0 -72 -75 -121t-183 -49q-76 0 -121 33.5 t-45 89.5z" />
<glyph unicode="j" horiz-adv-x="587" d="M-244 -332q0 25 23 25q8 0 26 -4q82 -18 127 -19q59 0 95 31q43 37 57 109.5t20 275.5q6 217 19 483l8 170q4 94 14.5 109.5t75.5 15.5q113 0 244 -8q39 -2 39 -39q0 -20 -2 -45q-10 -117 -15 -477q-4 -369 -45 -521.5t-166.5 -235.5t-314.5 -83q-92 0 -139 17 q-23 8 -31 22t-18 66q-16 86 -17 108zM147 1141q0 68 77 119t179 51q74 0 120 -37t46 -96q0 -70 -72.5 -117t-181.5 -47q-76 0 -122 34.5t-46 92.5z" />
<glyph unicode="k" horiz-adv-x="1101" d="M90 51q0 37 12 516l11 459q4 295 12 324.5t70 29.5h28q29 -2 49 -2h88q86 0 101.5 -3t19.5 -21q4 -10 4 -56q0 -8 -2 -47q-2 -45 -2 -86l-12 -563q350 307 389 307q12 0 45 -28q14 -12 60 -50q65 -54 65 -72q0 -13 -39 -46q-141 -121 -190 -160q-18 -18 -41 -35l280 -252 q103 -94 103 -106q0 -18 -133.5 -106.5t-147.5 -88.5q-12 0 -55 47q-195 215 -346 350q0 -37 -13 -319q-2 -31 -32.5 -39t-147.5 -8h-84q-68 0 -80 7t-12 48z" />
<glyph unicode="l" horiz-adv-x="569" d="M86 37q0 59 2 135q4 88 10 363l17 731q2 68 6 82q12 30 60 30h3h256q33 0 39 -14t6 -94q0 -49 -14 -508q-2 -74 -8 -348q-8 -391 -20.5 -403.5t-166.5 -12.5h-145q-45 0 -45 39z" />
<glyph unicode="m" horiz-adv-x="1734" d="M92 80q0 23 8 133q10 141 17 336l6 170q2 76 12 94q16 29 78 29q37 0 125 -4q43 -2 53 -2q53 0 248 45q86 22 152 22h6q129 0 200 -98q201 100 342 100q127 0 205 -69q111 -99 111 -355q0 -371 -13 -440q-6 -29 -21 -38t-60 -11l-91 -2q-10 0 -34 -2h-27q-86 0 -82 0 q-57 4 -57 37q0 12 6 63q18 154 18 358q0 248 -139 248q-53 0 -113 -30q16 -82 17 -162q0 -389 -12 -467q-6 -45 -142 -45h-35q-29 2 -53 2h-24q-29 0 -50 -2h-16q-45 0 -45 39q0 6 4 49q25 254 25 434q0 188 -117 188q-53 0 -121 -32v-99q0 -147 -20 -508q-2 -43 -28 -54 t-120 -11h-18q-18 2 -35 2h-88q-53 0 -62.5 11t-9.5 71z" />
<glyph unicode="n" horiz-adv-x="1193" d="M96 55q0 2 2 33v57v181l6 372q2 80 7 99q14 43 71 43q-8 0 41 -2q96 -4 139 -4q84 0 209 34q133 37 209 37q211 0 293 -200q39 -97 39 -322q0 -106 -4 -178l-6 -107q-4 -74 -26.5 -86t-160.5 -16l-139 -4h-3q-46 0 -46 57q0 45 2 82q6 111 6 307q0 137 -31.5 197.5 t-103.5 60.5q-43 0 -125 -26l2 -78v-70q-2 -94 -2 -274v-139q0 -80 -15.5 -93.5t-109.5 -15.5l-166 -4q-68 0 -80 20q-8 12 -8 39z" />
<glyph unicode="o" horiz-adv-x="1216" d="M55 424q0 219 167 350t446 131q229 0 361 -116.5t132 -321.5q0 -236 -147.5 -373t-403.5 -137q-250 0 -402.5 128t-152.5 339zM459 406q0 -203 155 -203q92 0 143.5 69.5t51.5 192.5q0 215 -156 215q-129 0 -172 -119q-22 -58 -22 -147v-8z" />
<glyph unicode="p" horiz-adv-x="1183" d="M86 -330q0 492 16 1008q4 117 16.5 138.5t71.5 21.5q37 0 71 -2t61 -2q102 0 260 45q103 30 168 30h4q156 0 266 -127t110 -307q0 -211 -141 -362.5t-336 -151.5q-86 0 -196 45l2 -233v-48q0 -171 -13 -202q-8 -27 -106 -27q-197 0 -219.5 4t-28.5 35t-6 135zM459 197 q53 -27 98 -27q98 0 168 85t70 204q0 96 -53.5 157.5t-137.5 61.5q-63 0 -133 -41q-12 -254 -12 -440z" />
<glyph unicode="q" horiz-adv-x="1177" d="M55 424q0 201 135.5 342t329.5 141q55 0 203 -30q70 -14 311 -17q43 0 53 -24q7 -17 7 -62q0 -111 -7 -387l-4 -184q-2 -135 -8 -434l-2 -158q0 -78 -15.5 -94.5t-86.5 -16.5h-205q-45 0 -58 20q-10 18 -10 56v12l13 430q-115 -57 -224 -57q-180 0 -306 135t-126 328z M397 455q0 -113 64.5 -193t156.5 -80q51 0 97 19l12 479q-51 16 -100 16q-100 0 -165 -67.5t-65 -173.5z" />
<glyph unicode="r" horiz-adv-x="759" d="M92 43v29q0 631 12 716q4 59 21.5 69.5t118.5 10.5q150 0 175 -8t25 -57q0 2 0 -15q-2 -16 -2 -53v-41q70 143 179 183q75 28 133 28h4q35 0 41 -37q2 -8 2 -65q0 -129 -3 -142.5t-71 -19.5q-242 -20 -258 -227q-6 -74 -6 -320q0 -68 -6 -81t-35 -17q-45 -6 -242 -6 q-63 0 -75.5 7t-12.5 46z" />
<glyph unicode="s" horiz-adv-x="770" d="M41 16q0 29 18 121q10 53 33 53q10 0 27 -4q102 -26 153 -26h4q74 0 74 47q0 25 -108 129q-145 139 -146 270q0 145 122 225t341 80q106 0 128 -12t22 -76q0 -51 -11 -94q-8 -35 -36 -35q-18 0 -55.5 4t-51.5 4q-100 0 -100 -61q0 -23 17 -43t106 -98q139 -123 139 -248 q0 -121 -88 -207q-104 -102 -291 -102q-143 0 -246 30q-51 14 -51 43z" />
<glyph unicode="t" horiz-adv-x="815" d="M31 698v33q0 86 9 104.5t54 18.5h78l2 31q4 70 14 258q2 27 9.5 35t35.5 12l80 14q115 20 197 21q45 0 45 -47q0 -23 -12 -166q-2 -18 -11 -152q123 6 220 6q47 0 54 -14t7 -98q0 -86 -16 -101q-4 -4 -131 -10q-35 0 -146 -4l-10 -283q0 -117 31.5 -150.5t103.5 -33.5 q74 0 143 33q12 4 17 4q16 0 24 -39l11 -45q10 -46 10 -64q0 -33 -53 -55q-131 -57 -297 -57q-360 0 -361 393q0 76 19 285l-45 -4q-31 -6 -47 -7q-31 0 -33 41z" />
<glyph unicode="u" horiz-adv-x="1183" d="M80 500q0 309 16 346q12 20 68 20h22q20 -2 37 -2h170q68 0 68 -43q0 -14 -2 -22q-6 -76 -6 -234q0 -254 41 -325.5t118 -71.5q49 0 93 20q16 418 16 537v39v41q-2 20 -2 22q0 47 57 47l256 -2q43 0 50.5 -17.5t7.5 -119.5q0 -248 -9 -538q-2 -100 -17 -132t-60 -32 q-18 0 -54.5 2t-54.5 2q-133 0 -256 -35q-129 -37 -195 -37q-195 0 -292 180q-72 131 -72 355z" />
<glyph unicode="v" horiz-adv-x="976" d="M-41 811q0 18 26.5 26.5t186.5 34.5l72 13q25 4 37 4q33 0 55 -49q8 -18 26 -60q2 -4 15 -28l63 -142q39 -86 101 -215q59 137 157 342q55 117 69.5 136.5t45.5 19.5q63 0 164 -27q59 -16 59 -39q0 -41 -225 -452q-137 -250 -206.5 -333t-143.5 -83q-59 0 -97 52 t-186 335q-219 424 -219 465z" />
<glyph unicode="w" horiz-adv-x="1548" d="M-37 803q0 20 18.5 27.5t110.5 25.5q164 33 184 33q39 0 72 -74q51 -102 170 -364l21 -48q51 82 137 220q-14 33 -66 145q-8 18 -8 31q0 33 109 55q133 27 190 27q31 0 47 -45l80 -232q37 -106 76 -194q94 215 156 342q49 100 62 118.5t42 18.5t156 -27q65 -14 65 -43 q0 -72 -260 -526q-106 -184 -173 -259t-126 -75q-51 0 -79.5 40t-86.5 194q-25 68 -74 188q-96 -172 -178 -291q-94 -135 -157 -135q-61 0 -142 135q-160 274 -301 596q-45 102 -45 117z" />
<glyph unicode="x" horiz-adv-x="983" d="M-18 811q0 14 31.5 22.5t201.5 34.5l78 13q27 4 31 4q53 0 182 -226q33 51 115 177q33 49 61 49q-2 0 94 -17q164 -29 164 -47q0 -20 -252 -317l162 -221q57 -80 151 -207q9 -11 9 -19q0 -20 -82 -34q-37 -8 -107 -23l-57 -12q-57 -12 -78 -13q-39 0 -63 48 q-23 41 -60 99t-100 146q-16 -25 -80 -118q-90 -133 -108.5 -155t-38.5 -22q-6 0 -23 4q-84 20 -174 33q-39 6 -39 31q0 16 152 205q12 14 129 164q-20 25 -29 39l-131 161q-139 172 -139 201z" />
<glyph unicode="y" horiz-adv-x="952" d="M-41 829q0 31 61 35q94 8 230 25q16 2 37 2q41 0 61 -64q14 -47 29 -77q4 -6 16 -37l56 -140q35 -90 77 -178q23 47 80 172q12 27 43 97q6 12 23.5 50t50.5 113q29 68 61 68q12 0 31 -6q141 -33 148 -33q38 -9 38 -29q0 -12 -30 -73q-4 -8 -135 -277q-59 -127 -183 -379 l-186 -374q-31 -57 -90 -173q-27 -55 -55 -55q-31 0 -142 45q-96 39 -96 62q0 12 125 229q37 61 125 221q-154 293 -328 664q-25 53 -39 88q-8 10 -8 24z" />
<glyph unicode="z" horiz-adv-x="866" d="M6 37q0 33 232 383q70 104 129 198q-102 -8 -240 -8q-78 0 -78 43q0 2 4 31l10 70q12 80 25.5 94t83.5 18q61 4 440 4q174 0 210 -3.5t36 -26.5q0 -27 -231 -381q-12 -18 -135 -217q186 8 290 8q59 0 65.5 -8.5t6.5 -16.5q0 -10 -4 -32l-12 -68q-16 -88 -21 -100 q-6 -23 -28.5 -28t-274.5 -5q-324 0 -420 4q-88 4 -88 41z" />
<glyph unicode="{" horiz-adv-x="813" d="M72 672q0 12 34 33q49 29 83 97t34 140q0 51 -6 154.5t-6 154.5q0 330 260 439q127 53 293 53q61 0 61 -47q0 -82 -10 -113q-4 -20 -16.5 -24.5t-67.5 -8.5q-252 -14 -252 -313q0 -25 8 -172q2 -37 2 -102q0 -209 -174 -289q174 -86 174 -271q0 -55 -6 -165 q-4 -74 -4 -117q0 -172 66.5 -246t228.5 -82q39 -2 45 -55q8 -76 8 -86q0 -51 -73 -51q-154 0 -291 57q-254 106 -254 410q0 90 6 163q8 98 8 166q0 178 -129 252q-23 12 -22 23z" />
<glyph unicode="|" horiz-adv-x="1019" d="M324 -340v1700h374v-1700h-374z" />
<glyph unicode="}" horiz-adv-x="813" d="M-20 1702q0 41 73 41q154 0 293 -57q250 -102 250 -398q0 -74 -8 -176t-8 -170q0 -166 139 -242q24 -12 24 -28q0 -14 -24 -31q-137 -88 -137 -244q0 -47 6 -166q4 -80 4 -135q0 -336 -258 -442q-127 -53 -289 -53q-63 0 -63 45q0 68 10 112q4 20 16 24.5t68 8.5 q133 8 191.5 91t58.5 270q0 63 -4 127q-6 96 -7 127q0 182 177 264q-176 82 -177 266q0 49 6.5 145.5t6.5 145.5q0 217 -125 286q-53 29 -164 37q-27 2 -35 13.5t-12 56.5l-8 41q-4 20 -4 41z" />
<glyph unicode="~" horiz-adv-x="1359" d="M188 1251q117 299 316 299q66 0 276 -84q61 -25 97 -24q37 0 61.5 23.5t62.5 90.5l179 -149q-51 -125 -103 -190q-90 -113 -215 -113q-51 0 -262 82q-74 29 -108 28q-63 0 -125 -112z" />
<glyph unicode="&#xa1;" horiz-adv-x="796" d="M182 1204q0 74 71 128t167 54q84 0 143.5 -45.5t59.5 -113.5q0 -70 -78 -119t-187 -49q-80 0 -128 40t-48 105zM209 18q0 18 18 637q4 141 4 150l-2 108q-2 55 25 68q10 4 84 6l88 2q14 0 35 2h22q98 0 105.5 -24.5t7.5 -118.5q0 -295 -16 -578l-11 -176q-6 -94 -12 -119 q-10 -31 -39 -34q-51 -8 -168 -9h-37l-45 2q-43 2 -53 25q-6 10 -6 59z" />
<glyph unicode="&#xa2;" d="M186 680q0 207 153 324.5t353 117.5h37l2 99q0 6 -2 14v14q0 25 15.5 30t89.5 5q29 0 34.5 -6t5.5 -35q0 -6 -3 -42t-3 -77v-18q195 -43 195 -84q0 -29 -25 -131q-12 -47 -30 -47q-8 0 -62 18q-39 14 -90 23q-27 -342 -29 -418q84 12 195 74q12 4 16 4q16 0 17 -35 q0 -131 -30 -174t-208 -82v-80l2 -45v-29q0 -27 -19.5 -30.5t-82.5 -3.5q-43 0 -43 32v66q0 -2 4 76q-221 -2 -356.5 119.5t-135.5 320.5zM555 674q0 -137 135 -197q13 158 27 406q-162 -45 -162 -209z" />
<glyph unicode="&#xa3;" d="M106 14q0 41 17.5 118t32.5 101q27 43 172 60q4 29 4 72q0 145 -2 198l-19 -2l-32 -2q-8 -2 -27 -2q-55 0 -64.5 16.5t-9.5 114.5q0 100 4 111q6 18 62 18q12 0 61 -2q-14 109 -14 156q0 236 162 356q123 92 340 92q168 0 342 -63q67 -24 67 -49q0 -43 -51 -154 q-20 -41 -47 -41q-12 0 -45 14q-119 53 -217 54q-104 0 -148 -72q-27 -45 -26 -135q0 -51 6 -154q63 0 108 2t66 2q80 0 96.5 -6t16.5 -35q0 -31 -8.5 -106.5t-12.5 -85.5q-8 -25 -102 -25h-35l-55 2h-64l-20 2q-20 -160 -64 -303q109 -45 211 -45q139 0 342 113q10 6 21 6 q16 0 16 -27q0 -63 -14 -178q-8 -66 -70 -98q-123 -66 -264 -66q-76 0 -264 45q-119 29 -185 29q-102 0 -243 -51q-20 -4 -25 -4q-18 0 -19 24z" />
<glyph unicode="&#xa4;" d="M109 1036q0 10 63 74q12 10 35 33q31 31 49 31q23 0 164 -154q125 55 246 55q82 0 155 -28q127 131 146 131q14 0 73.5 -65.5t59.5 -82.5q0 -25 -84 -102l-29 -27q55 -102 55 -205q0 -119 -65 -229q131 -130 131 -148q0 -12 -25 -36l-43 -43q-57 -57 -73 -58 q-18 0 -88 70q-12 14 -70 70q-109 -45 -217 -46q-94 0 -193 35l-86 -88q-43 -45 -63 -45q-16 0 -37 25q-14 16 -43 43q-57 53 -57 73q0 23 116 132q-55 100 -55 202q0 125 72 230q-137 137 -137 153zM434 653q0 -78 46 -125t122 -47q84 0 139.5 56.5t55.5 140.5 q0 90 -46 141t-126 51q-84 0 -137.5 -61t-53.5 -156z" />
<glyph unicode="&#xa5;" d="M-10 1331q0 23 41 29q96 12 268 41q25 4 37 4q31 0 61 -57q25 -45 95 -160q45 -80 141 -236q10 -14 29 -47q104 203 212 387q49 84 62.5 99.5t36.5 15.5q61 0 174 -27q92 -22 92 -47q0 -45 -430 -702h31l84 2q82 2 104 -2q16 -4 16 -21l-4 -102q0 -25 -16 -29t-96 -4 h-121q0 -70 -2 -102h102q94 0 111.5 -3t17.5 -18l-4 -102q-2 -23 -16.5 -28t-75.5 -5h-135l-8 -158q-2 -47 -29 -55t-184 -8q-113 0 -132.5 13.5t-19.5 92.5q0 35 2 115h-123q4 0 -82 -2q-37 0 -36 27v12l4 41q0 55 11 65.5t73 10.5h73q18 0 41 2h43v12l2 39v49h-16l-88 2 l-64 -2h-45q-43 0 -43 25v14l4 43q6 55 13.5 64.5t54.5 9.5q170 2 186 2q-14 23 -65 98q-180 266 -316 471q-72 109 -71 131z" />
<glyph unicode="&#xa6;" horiz-adv-x="1019" d="M324 313h374v-653h-374v653zM324 627v733h374v-733h-374z" />
<glyph unicode="&#xa7;" d="M84 -190q0 31 37 145q23 68 43 68q4 0 18 -7q229 -104 398 -104q168 0 168 88q0 33 -30 54.5t-183 101.5q-293 154 -377 245q-74 82 -74 197q0 170 170 285q-59 76 -59 166q0 150 128 254t312 104q137 0 344 -80q88 -35 88 -59q0 -18 -35 -127q-23 -72 -43 -72 q-8 0 -78 29q-176 72 -258 71q-57 0 -96 -27.5t-39 -68.5q0 -55 154 -139q262 -143 342 -205q116 -88 116 -225q0 -172 -159 -289q100 -84 100 -195q0 -143 -143.5 -242.5t-352.5 -99.5q-172 0 -415 80q-76 25 -76 52zM397 625q0 -33 29 -60.5t117 -79.5l223 -129 q47 50 47 105q0 57 -80 108q-25 16 -256 150q-18 10 -28 18q-51 -61 -52 -112z" />
<glyph unicode="&#xa8;" horiz-adv-x="1024" d="M225 1153q0 68 50.5 120t113.5 52q113 0 113 -123q0 -72 -44 -122t-108 -50q-57 0 -91 34t-34 89zM631 1155q0 74 44 123t111 49q51 0 85 -37t34 -96q0 -68 -45 -116t-106 -48q-55 0 -89 34t-34 91z" />
<glyph unicode="&#xa9;" horiz-adv-x="1634" d="M51 668q0 313 230.5 534t558.5 221q305 0 524 -213t219 -512q0 -154 -64.5 -301t-177.5 -250q-102 -94 -248.5 -151t-287.5 -57q-143 0 -287.5 57t-245.5 151q-221 209 -221 521zM240 674q0 -242 164.5 -410t402.5 -168q242 0 415 175t173 421q0 242 -167 408t-409 166 q-236 0 -407.5 -176.5t-171.5 -415.5zM412 643q0 233 217 375q145 94 344 94q117 0 180 -22q25 -8 25 -37v-25l-2 -35q-4 -68 -7.5 -82t-17.5 -14t-47 4q-68 8 -105 8q-133 0 -216 -74.5t-83 -195.5q0 -201 170 -201q113 0 234 76q43 27 49 27q10 0 37 -62q33 -76 33 -94 q0 -31 -117 -86q-139 -66 -277 -66q-182 0 -299.5 116t-117.5 294z" />
<glyph unicode="&#xaa;" horiz-adv-x="796" d="M27 569v23l2 47q2 63 47 63h149l326 3q125 0 147.5 -3.5t22.5 -23.5q0 -12 -2 -21l-2 -53q-2 -39 -11.5 -51t-41.5 -12h-541q-72 0 -84 4t-12 24zM59 942q0 100 96.5 161.5t252.5 61.5h26q-10 90 -112 90q-70 0 -138 -12q-6 -2 -18 -2q-16 0 -27 37q-12 47 -12 61 q0 25 51 37q92 23 176 23q186 0 273 -92q63 -68 63 -254q0 -154 -8 -189q-6 -27 -21.5 -32t-105.5 -5q-80 0 -240 -30q-33 -6 -73 -6q-84 0 -133.5 40.5t-49.5 110.5zM295 963q0 -47 65 -48q39 0 78 17q2 49 2 115v20q-145 -18 -145 -104z" />
<glyph unicode="&#xab;" horiz-adv-x="1015" d="M18 494q0 31 70 128t150 177q39 39 221 39q98 -1 98 -21q0 -31 -162 -207q-47 -53 -100 -121q6 -14 51 -116q14 -37 45 -107l41 -86q6 -12 6 -26q0 -37 -63 -35l-90 4h-54q-41 0 -56 17.5t-64 123.5q-92 199 -93 230zM463 489q0 29 49 84q78 88 137 170q55 76 87 89.5 t163 13.5q100 0 100 -25q0 -18 -133 -172q-8 -10 -63 -74q-33 -37 -78 -86q16 -37 53 -118q14 -37 47 -107l47 -84q8 -14 9 -26q0 -27 -76 -29l-78 -2h-57q-41 0 -56.5 17.5t-64.5 121.5q-86 180 -86 227z" />
<glyph unicode="&#xac;" horiz-adv-x="1019" d="M68 279v325h884v-604h-362v279h-522z" />
<glyph unicode="&#xad;" horiz-adv-x="880" d="M68 422q0 125 8 166q2 29 23.5 36t103.5 7q123 0 200.5 2t196.5 2q16 0 62 -2q37 -2 59 -2l47 2q43 2 43 -31q0 -143 -11.5 -180t-58.5 -37q-16 0 -41 2q-35 2 -100 2l-143 -2q-72 0 -217 -2l-117 -2q-55 0 -55 39z" />
<glyph unicode="&#xae;" horiz-adv-x="1634" d="M51 668q0 313 230.5 534t558.5 221q305 0 524 -213t219 -512q0 -154 -64.5 -301t-177.5 -250q-102 -94 -248.5 -151t-287.5 -57q-143 0 -287.5 57t-245.5 151q-221 209 -221 521zM240 674q0 -242 164.5 -410t402.5 -168q242 0 415 175t173 421q0 242 -167 408t-409 166 q-236 0 -407.5 -176.5t-171.5 -415.5zM489 340q0 10 3 106l4 195q2 109 8 313l4 86q2 45 9 58.5t32 15.5q55 4 184 4q225 0 333 -68.5t108 -201.5q0 -162 -162 -256l141 -164q74 -86 74 -98q0 -14 -80 -41q-100 -33 -117 -33q-23 0 -47.5 37t-62.5 84l-129 155 q-41 -4 -48 -4q0 -14 -2 -34q-2 -29 -2 -56l-2 -76q-2 -66 -27.5 -71.5t-111.5 -5.5q-82 0 -95.5 7t-13.5 48zM735 694q84 2 138.5 45t54.5 109q0 106 -129 106q-20 0 -58 -6z" />
<glyph unicode="&#xaf;" horiz-adv-x="1024" d="M152 1128q0 106 8 126t30.5 22t165.5 4h441q53 0 64 -4.5t11 -20.5q0 -109 -11 -133t-62 -24h-33q-20 0 -53 2h-47h-48q-49 -2 -90 -2l-317 -2q-51 0 -57 14q-2 6 -2 18z" />
<glyph unicode="&#xb0;" d="M227 1122q0 139 108.5 230.5t272.5 91.5q123 0 204 -83t81 -208q0 -139 -97.5 -230.5t-246.5 -91.5q-145 0 -233.5 80t-88.5 211zM440 1122q0 -55 33 -89t86 -34q59 0 98 40.5t39 99.5q0 137 -121 137q-59 0 -97 -43t-38 -111z" />
<glyph unicode="&#xb1;" d="M96 0v20l4 60q4 68 10.5 84t30.5 18q55 6 273 6h147h92q51 -2 60 -2h71q49 0 101 2h53q117 0 141.5 -3.5t24.5 -26.5q0 -10 -6 -131q-2 -41 -14.5 -49.5t-67.5 -10.5q-74 -2 -475 -2h-396q-49 0 -49 35zM111 598v20l4 60q6 78 15 91t65 13q41 4 200 4h105q0 37 2 129 l6 199q2 68 29 68h10l121 -6q45 -2 59 -12.5t14 -51.5l-2 -45t-6 -281l221 2q125 2 93 3q71 -2 71 -33q0 -86 -6 -146q-4 -31 -18.5 -39t-61.5 -8h-37q-20 0 -47 2h-33h-53l-135 -2l-8 -250q-2 -45 -35 -45q-14 0 -25 2l-61 4q-80 6 -95.5 14.5t-15.5 49.5v29l2 125 q0 25 3 69h-332q-49 0 -49 35z" />
<glyph unicode="&#xb2;" horiz-adv-x="784" d="M39 580q0 55 78 174q57 86 243 290q66 72 66 125q0 57 -68 58q-61 0 -122 -45q-29 -20 -43 -21q-23 0 -55 53.5t-32 61.5q0 35 113 82q82 35 178 35q131 0 214 -62.5t83 -163.5q0 -61 -32.5 -117.5t-126.5 -148.5q-84 -84 -103 -104q-27 -29 -53 -68l235 2 q59 0 69.5 -16.5t10.5 -112.5q0 -45 -30 -55q-10 -4 -74 -4h-82l-111 -2h-243h-72q-43 6 -43 39z" />
<glyph unicode="&#xb3;" horiz-adv-x="784" d="M47 606q0 12 31 88q16 39 39 39q10 0 41 -10q76 -27 129 -27q61 0 99 34t38 91q0 98 -137 105q-47 2 -59.5 8t-12.5 27q0 10 2 16q4 33 4 55q6 49 41 51q133 4 133 86q0 53 -61 54q-43 0 -115 -49q-20 -12 -33 -13q-23 0 -49 43q-39 63 -39 74q0 35 95.5 74t181.5 39 q125 0 203.5 -58.5t78.5 -148.5q0 -55 -24.5 -90t-93.5 -78q45 -18 65 -31q84 -47 84 -164q0 -123 -102.5 -212t-243.5 -89q-137 0 -256 47q-39 14 -39 39z" />
<glyph unicode="&#xb4;" horiz-adv-x="1024" d="M399 1051q0 16 33 77l43 80l31 68q27 59 46 73.5t81 12.5l147 -4q47 -2 47 -25q0 -14 -170 -233q-43 -57 -58 -63.5t-114 -6.5q-86 0 -86 21z" />
<glyph unicode="&#xb6;" d="M72 944q0 129 67.5 227.5t186.5 145.5q74 29 143.5 37t253.5 10q72 0 240 6q43 2 84 2q55 0 55 -33q0 -74 -17 -120q-12 -35 -47 -35q-53 0 -63 2q-4 -102 -10 -459q-8 -524 -62 -676q-125 -360 -573 -360q-39 0 -39 18q4 43 8 84q4 31 11 38t34 9q190 29 248.5 159 t60.5 519q-256 2 -377 74q-205 121 -204 352zM518 934q0 -233 125 -234h14q7 306 15 476q-14 2 -33 2q-121 0 -121 -244z" />
<glyph unicode="&#xb7;" horiz-adv-x="638" d="M104 479q0 78 69 135.5t161 57.5t148.5 -46t56.5 -120q0 -84 -63.5 -136.5t-166.5 -52.5q-94 0 -149.5 44.5t-55.5 117.5z" />
<glyph unicode="&#xb8;" horiz-adv-x="1024" d="M426 -393q0 18 33 26q111 27 110 109q0 43 -75 68q-18 6 -19 24q0 14 4 32.5t23 133.5h164l-19 -121q115 -24 115 -147q0 -137 -174 -211q-78 -33 -113 -33q-18 0 -35 59l-10 37q-4 14 -4 23z" />
<glyph unicode="&#xb9;" horiz-adv-x="784" d="M152 1198q0 43 9 55.5t56 36t113 62.5q55 33 106 32q92 0 111.5 -5.5t19.5 -32.5q0 2 -4 -91q0 -12 -6 -270q0 -59 -6 -268l-2 -70v-41q0 -45 -16.5 -53t-112.5 -8h-43q-63 0 -79.5 9t-16.5 48q0 25 2 70q2 53 2 100l2 182q2 109 6 185l-37 -19q-61 -31 -76 -30 q-20 0 -24 13t-4 95z" />
<glyph unicode="&#xba;" horiz-adv-x="796" d="M25 1085q0 143 112.5 227.5t300.5 84.5q158 0 247 -76t89 -207q0 -154 -100.5 -242t-274.5 -88q-168 0 -271 83t-103 218zM51 569v23l2 47q2 63 47 63h152l326 3q125 0 147.5 -4.5t22.5 -24.5v-19l-5 -53q-2 -37 -10 -47q-12 -16 -45 -16h-541q-72 0 -84 4t-12 24z M303 1073q0 -125 100 -125q125 0 125 164q0 133 -100 133q-125 0 -125 -172z" />
<glyph unicode="&#xbb;" horiz-adv-x="1015" d="M16 147q0 27 164 211l107 121q-16 39 -51 117q-18 47 -91 192q-8 10 -8 25q0 29 84 31l70 2h55q41 0 56.5 -17.5t64.5 -123.5q86 -185 86 -226q0 -29 -49 -84q-70 -80 -137 -170q-57 -76 -89 -89t-163 -13q-98 0 -99 24zM459 152q0 31 162 206q66 72 98 121 q-86 207 -133 307q-8 14 -8 27q0 35 65 35q-2 0 28.5 -2t59.5 -2h49q45 0 60.5 -17.5t64.5 -124.5q92 -200 92 -227q0 -33 -69.5 -129t-149.5 -176q-39 -39 -217 -39q-102 0 -102 21z" />
<glyph unicode="&#xbc;" horiz-adv-x="1835" d="M131 1198q0 43 9.5 55.5t56.5 36t112 62.5q55 33 107 32q92 0 111.5 -5.5t19.5 -32.5q0 2 -4 -91q0 -12 -6 -270q0 -59 -7 -268l-2 -70v-41q0 -45 -16 -53t-113 -8h-43q-63 0 -79.5 9t-16.5 48q0 25 2 70q2 53 2 100l2 182q2 109 6 185l-36 -19q-61 -31 -76 -30 q-20 0 -24.5 13t-4.5 95zM422 31q0 12 18 49q31 61 131 278q94 203 476 1012q25 51 49 51q12 0 39 -14l55 -31q45 -25 45 -39q0 -4 -4 -12l-19 -43q-20 -49 -303 -643q-63 -131 -247 -539q-70 -154 -97 -153q-20 0 -92 45q-51 27 -51 39zM967 373q0 37 280 338 q72 78 99.5 96t68.5 18q92 0 146 -4q41 -4 41 -51q0 -61 -9 -371h68q55 0 55 -47q0 -23 -2 -37v-41q0 -35 -13 -45t-50 -10h-62q-2 -74 -4 -182q-2 -27 -21.5 -33t-101.5 -6h-73q-51 0 -62 20q-4 10 -4 33v27l2 141h-70l-77 -2h-60l-76 2q-27 6 -43 55q-6 16 -16 48l-12 30 q-4 16 -4 21zM1188 377q45 2 117 2q39 0 55 -2l2 53l2 168q-129 -158 -176 -221z" />
<glyph unicode="&#xbd;" horiz-adv-x="1835" d="M164 1198q0 43 9 55.5t56 36t113 62.5q55 33 107 32q92 0 111.5 -5.5t19.5 -32.5q0 2 -5 -91q0 -12 -6 -270q0 -59 -6 -268l-2 -70v-41q0 -45 -16.5 -53t-112.5 -8h-43q-63 0 -79.5 9t-16.5 48q0 25 2 70q2 53 2 100l2 182q2 109 6 185l-37 -19q-61 -31 -75 -30 q-20 0 -24.5 13t-4.5 95zM455 31q0 12 18 49q23 45 131 278q127 276 475 1012q25 51 49 51q10 0 37 -15t58 -30q45 -23 45 -39q0 -4 -4 -12l-19 -43l-49 -104l-502 -1078q-72 -154 -96 -153q-14 0 -39 14q-25 8 -53 31q-51 29 -51 39zM1022 37q0 51 80 174q63 96 244 291 q66 70 65 125q0 57 -68 57q-59 0 -122 -45q-29 -20 -45 -21q-23 0 -54.5 53.5t-31.5 61.5q0 33 112 82q82 35 178 35q131 0 214 -62.5t83 -162.5q0 -109 -159 -267q-113 -111 -158 -172l235 2q61 0 71.5 -16.5t10.5 -112.5q0 -45 -30 -55q-10 -2 -74 -4l-84 -2h-352 q-78 0 -96.5 6t-18.5 33z" />
<glyph unicode="&#xbe;" horiz-adv-x="1835" d="M47 606q0 12 31 88q16 39 39 39q10 0 41 -10q76 -27 129 -27q61 0 99 34t38 91q0 98 -137 105q-47 2 -59.5 8t-12.5 27q0 10 2 16q4 33 4 55q6 49 41 51q133 4 133 86q0 53 -61 54q-43 0 -115 -49q-20 -12 -33 -13q-23 0 -49 43q-39 63 -39 74q0 35 95.5 74t181.5 39 q125 0 203.5 -58.5t78.5 -148.5q0 -55 -24.5 -90t-93.5 -78q45 -18 65 -31q84 -47 84 -164q0 -123 -102.5 -212t-243.5 -89q-137 0 -256 47q-39 14 -39 39zM512 31q0 12 18 49q35 68 132 278q66 145 262 557q51 113 157 336q23 49 43 99q37 72 62 71q12 0 39 -14l55 -31 q45 -25 45 -39l-4 -12l-21 -43q-16 -35 -47 -104q-252 -530 -501 -1078q-70 -154 -97 -153q-14 0 -47 18q-23 12 -45 27q-51 25 -51 39zM1042 373q0 39 279 338q72 76 99.5 95t68.5 19q94 0 145 -4q41 -4 41 -51l-6 -371h68q53 0 53 -49q0 -23 -2 -35v-41q0 -35 -13.5 -45 t-50.5 -10h-61q0 -59 -2 -80q-2 -29 -2 -51l2 -49q2 -33 -47 -39q-23 -2 -76 -2h-76q-33 0 -49 7t-16 42l2 172h-70l-76 -2h-59l-76 2q-25 4 -43 55l-16 48l-12 30q-4 16 -5 21zM1264 377q43 2 114 2q39 0 58 -2v53q0 27 2 68v59v41q-143 -178 -174 -221z" />
<glyph unicode="&#xbf;" horiz-adv-x="991" d="M76 272q0 127 139 285q113 127 147.5 204t43.5 226q2 29 44 36t220 7q47 0 58 -6t11 -33q0 -92 -24 -184q-37 -139 -185 -352q-68 -98 -67 -150q0 -49 34.5 -83t84.5 -34q68 0 163 52q47 25 56 24q14 0 47 -71q37 -82 37 -107q0 -35 -111 -84q-152 -68 -297 -68 q-170 0 -285.5 97.5t-115.5 240.5zM352 1245q0 72 70 127t160 55q86 0 145 -46.5t59 -112.5q0 -74 -72.5 -121t-185.5 -47q-76 0 -126 42t-50 103z" />
<glyph unicode="&#xc0;" horiz-adv-x="1370" d="M-82 39q0 29 247 517t355 673q55 94 88 122.5t111 49.5q92 25 158 24q31 0 57.5 -64.5t148.5 -432.5q281 -846 281 -879q0 -23 -20.5 -30t-141.5 -25q-152 -23 -203 -23q-20 0 -28 11.5t-25 66.5l-82 268q-45 0 -231 2q-84 0 -225 7l-142 -316q-23 -43 -55 -43 q-111 0 -240 35q-53 14 -53 37zM399 1788q0 27 211 27q59 0 77 -8.5t56 -59.5q148 -188 148 -219q0 -20 -115 -21q-96 0 -117.5 8.5t-74.5 65.5q-14 20 -138 145q-47 49 -47 62zM512 582l35 -2h110q-22 -1 138 -5q-4 16 -13 48q-29 98 -102 348q-35 -96 -150 -348z" />
<glyph unicode="&#xc1;" horiz-adv-x="1370" d="M-82 39q0 29 247 517t355 673q55 94 88 122.5t111 49.5q92 25 158 24q31 0 57.5 -64.5t148.5 -432.5q281 -846 281 -879q0 -23 -20.5 -30t-141.5 -25q-152 -23 -203 -23q-20 0 -28 11.5t-25 66.5l-82 268q-45 0 -231 2q-84 0 -225 7l-142 -316q-23 -43 -55 -43 q-111 0 -240 35q-53 14 -53 37zM512 582l35 -2h110q-22 -1 138 -5q-4 16 -13 48q-29 98 -102 348q-35 -96 -150 -348zM649 1526q0 16 56 73q45 47 112 132q43 55 67.5 66t92.5 11q94 0 176 -4q51 -2 51 -18q0 -14 -205 -189q-78 -66 -98 -77t-61 -11h-127l-33 2 q-31 -2 -31 15z" />
<glyph unicode="&#xc2;" horiz-adv-x="1370" d="M-82 39q0 29 247 517t355 673q55 94 88 122.5t111 49.5q92 25 158 24q31 0 57.5 -64.5t148.5 -432.5q281 -846 281 -879q0 -23 -20.5 -30t-141.5 -25q-152 -23 -203 -23q-20 0 -28 11.5t-25 66.5l-82 268q-45 0 -231 2q-84 0 -225 7l-142 -316q-23 -43 -55 -43 q-111 0 -240 35q-53 14 -53 37zM311 1534q0 23 234 190l82 62q43 33 125 33q162 0 186 -11q51 -23 149 -143q20 -25 64.5 -76t44.5 -61q0 -20 -131 -21q-66 0 -111 9q-20 4 -96 90q-37 41 -72 71q-37 -27 -102 -78q-74 -59 -98.5 -72.5t-59.5 -13.5q-25 0 -127 5l-51 2 q-37 -4 -37 14zM512 582l35 -2h110q-22 -1 138 -5q-4 16 -13 48q-29 98 -102 348q-35 -96 -150 -348z" />
<glyph unicode="&#xc3;" horiz-adv-x="1370" d="M-82 39q0 29 247 517t355 673q55 94 88 122.5t111 49.5q92 25 158 24q31 0 57.5 -64.5t148.5 -432.5q281 -846 281 -879q0 -23 -20.5 -30t-141.5 -25q-152 -23 -203 -23q-20 0 -28 11.5t-25 66.5l-82 268q-45 0 -231 2q-84 0 -225 7l-142 -316q-23 -43 -55 -43 q-111 0 -240 35q-53 14 -53 37zM336 1532q0 70 74 149q84 92 229 93q61 0 158 -25l10 -2q88 -23 127 -23q43 0 80 50q14 20 43 20q25 0 41 -2h57q20 2 41 2q29 0 29 -18q0 -59 -78 -150q-88 -102 -195 -102q-66 0 -200 32l-62 15q-35 8 -51 8q-35 0 -84 -55 q-20 -23 -133 -23q-86 0 -86 31zM512 582l35 -2h110q-22 -1 138 -5q-4 16 -13 48q-29 98 -102 348q-35 -96 -150 -348z" />
<glyph unicode="&#xc4;" horiz-adv-x="1370" d="M-82 39q0 29 247 517t355 673q55 94 88 122.5t111 49.5q92 25 158 24q31 0 57.5 -64.5t148.5 -432.5q281 -846 281 -879q0 -23 -20.5 -30t-141.5 -25q-152 -23 -203 -23q-20 0 -28 11.5t-25 66.5l-82 268q-45 0 -231 2q-84 0 -225 7l-142 -316q-23 -43 -55 -43 q-111 0 -240 35q-53 14 -53 37zM442 1616q0 70 51.5 124t116.5 54q117 0 117 -129q0 -74 -46 -125t-112 -51q-57 0 -92 35t-35 92zM512 582l35 -2h110q-22 -1 138 -5q-4 16 -13 48q-29 98 -102 348q-35 -96 -150 -348zM860 1616q0 78 45 128t115 50q53 0 87 -39t34 -98 q0 -70 -46 -119t-110 -49q-55 0 -90 35t-35 92z" />
<glyph unicode="&#xc5;" horiz-adv-x="1370" d="M-82 39q0 29 247 517t355 673q55 94 88 122.5t111 49.5q92 25 158 24q31 0 57.5 -64.5t148.5 -432.5q281 -846 281 -879q0 -23 -20.5 -30t-141.5 -25q-152 -23 -203 -23q-20 0 -28 11.5t-25 66.5l-82 268q-45 0 -231 2q-84 0 -225 7l-142 -316q-23 -43 -55 -43 q-111 0 -240 35q-53 14 -53 37zM512 582l35 -2h110q-22 -1 138 -5q-4 16 -13 48q-29 98 -102 348q-35 -96 -150 -348zM535 1683q0 96 74.5 160t189.5 64q86 0 142 -57.5t56 -143.5q0 -96 -67.5 -159.5t-171.5 -63.5q-100 0 -161.5 55t-61.5 145zM694 1686q0 -72 72 -72 q82 0 82 82q0 80 -72 80q-82 0 -82 -90z" />
<glyph unicode="&#xc6;" horiz-adv-x="1910" d="M-94 55q0 18 12 37q23 47 70 137q326 637 569 1035q61 98 100 106t170 8q664 0 926 -8q49 -2 62.5 -8t13.5 -29q0 -33 -8 -129q-6 -72 -13.5 -86t-38.5 -14q-10 0 -51 2q-53 -2 -383 6l-61 2q-8 -76 -10 -289q252 14 462 15q59 0 60 -35q0 -53 -8 -170q-2 -39 -15.5 -48 t-54.5 -7l-51 2q-51 2 -90 2q-29 0 -305 -4q2 -45 2 -103q0 4 -2 -57q0 -74 -2 -160q252 6 495 6q98 0 107.5 -8t9.5 -47q0 -6 -2 -27v-32q0 -25 2 -46v-45q0 -43 -18.5 -52t-211.5 -9l-704 2q-68 0 -78 29q-4 14 -4 43q0 2 8 123q4 70 8 383l-75 -2l-131 -3h-109l-29 -2 q-147 -326 -225 -479q-45 -90 -56 -105.5t-34 -15.5q-18 0 -37 4l-65 15l-82 14q-123 20 -123 49zM643 825h74l166 -4q6 129 6 215v80h-27l-57 -2h-19q-90 -186 -143 -289z" />
<glyph unicode="&#xc7;" horiz-adv-x="1415" d="M66 608q0 383 362 623q240 158 571 158q281 0 332 -56q12 -12 12 -47q0 -84 -10 -162q-6 -47 -35 -47q-12 0 -20 2q-160 18 -229 19q-256 0 -414 -136.5t-158 -357.5q0 -176 93.5 -278.5t254.5 -102.5q188 0 394 127q70 43 84 43q18 0 61 -84q53 -104 53 -131 q0 -66 -256 -170q-143 -59 -319 -78l-15 -94q125 -4 125 -119q0 -123 -147 -215q-102 -63 -170 -63q-23 0 -33 26q-27 70 -27 89q0 25 37 36q129 43 129 121q0 41 -59 53q-29 6 -29 31q0 12 21 135q-281 39 -444.5 221.5t-163.5 456.5z" />
<glyph unicode="&#xc8;" horiz-adv-x="1167" d="M102 74q0 -10 4 383q0 78 9 434l12 450q2 23 19.5 29t76.5 6h27q299 0 573 -4l138 -2q63 0 69 -2q39 -8 39 -43q0 -33 -14 -156q-6 -45 -16.5 -54t-55.5 -9h-49q-43 0 -70.5 2t-32.5 2h-317l-2 -145l-4 -103v-33q137 8 424 9q70 0 82 -5.5t12 -35.5q0 -129 -16 -193 q-4 -16 -42 -19t-241 -3h-221v-31q0 -178 -6 -289q129 4 528 4q61 0 71.5 -3t12.5 -23q2 -31 2 -160q0 -55 -13.5 -65.5t-88.5 -14.5q-41 -2 -293 -2q-68 0 -115 -2h-74h-133q-254 0 -274.5 8t-20.5 70zM297 1788q0 27 211 27q59 0 76.5 -8.5t56.5 -59.5q147 -188 147 -219 q0 -20 -114 -21q-96 0 -117.5 8.5t-75.5 65.5q-14 20 -137 145q-47 49 -47 62z" />
<glyph unicode="&#xc9;" horiz-adv-x="1167" d="M102 74q0 -10 4 383q0 78 9 434l12 450q2 23 19.5 29t76.5 6h27q299 0 573 -4l138 -2q63 0 69 -2q39 -8 39 -43q0 -33 -14 -156q-6 -45 -16.5 -54t-55.5 -9h-49q-43 0 -70.5 2t-32.5 2h-317l-2 -145l-4 -103v-33q137 8 424 9q70 0 82 -5.5t12 -35.5q0 -129 -16 -193 q-4 -16 -42 -19t-241 -3h-221v-31q0 -178 -6 -289q129 4 528 4q61 0 71.5 -3t12.5 -23q2 -31 2 -160q0 -55 -13.5 -65.5t-88.5 -14.5q-41 -2 -293 -2q-68 0 -115 -2h-74h-133q-254 0 -274.5 8t-20.5 70zM358 1526q0 16 56 73q45 47 112 132q43 55 67.5 66t92.5 11 q94 0 176 -4q51 -2 51 -18q0 -14 -204 -189q-78 -66 -98.5 -77t-61.5 -11h-127l-33 2q-31 -2 -31 15z" />
<glyph unicode="&#xca;" horiz-adv-x="1167" d="M102 74q0 -10 4 383q0 78 9 434l12 450q2 23 19.5 29t76.5 6h27q299 0 573 -4l138 -2q63 0 69 -2q39 -8 39 -43q0 -33 -14 -156q-6 -45 -16.5 -54t-55.5 -9h-49q-43 0 -70.5 2t-32.5 2h-317l-2 -145l-4 -103v-33q137 8 424 9q70 0 82 -5.5t12 -35.5q0 -129 -16 -193 q-4 -16 -42 -19t-241 -3h-221v-31q0 -178 -6 -289q129 4 528 4q61 0 71.5 -3t12.5 -23q2 -31 2 -160q0 -55 -13.5 -65.5t-88.5 -14.5q-41 -2 -293 -2q-68 0 -115 -2h-74h-133q-254 0 -274.5 8t-20.5 70zM156 1534q0 23 233 190l82 62q43 33 125 33q162 0 186 -11 q51 -23 150 -143q20 -25 64 -76t44 -61q0 -20 -131 -21q-66 0 -110 9q-20 4 -97 90q-37 41 -71 71q-37 -27 -103 -78q-74 -59 -98 -72.5t-59 -13.5q-25 0 -127 5l-51 2q-37 -4 -37 14z" />
<glyph unicode="&#xcb;" horiz-adv-x="1167" d="M102 74q0 -10 4 383q0 78 9 434l12 450q2 23 19.5 29t76.5 6h27q299 0 573 -4l138 -2q63 0 69 -2q39 -8 39 -43q0 -33 -14 -156q-6 -45 -16.5 -54t-55.5 -9h-49q-43 0 -70.5 2t-32.5 2h-317l-2 -145l-4 -103v-33q137 8 424 9q70 0 82 -5.5t12 -35.5q0 -129 -16 -193 q-4 -16 -42 -19t-241 -3h-221v-31q0 -178 -6 -289q129 4 528 4q61 0 71.5 -3t12.5 -23q2 -31 2 -160q0 -55 -13.5 -65.5t-88.5 -14.5q-41 -2 -293 -2q-68 0 -115 -2h-74h-133q-254 0 -274.5 8t-20.5 70zM289 1616q0 70 51 124t117 54q116 0 116 -129q0 -74 -46 -125 t-111 -51q-57 0 -92 35t-35 92zM707 1616q0 78 45 128t114 50q53 0 87 -39t34 -98q0 -70 -46 -119t-110 -49q-55 0 -89.5 35t-34.5 92z" />
<glyph unicode="&#xcc;" horiz-adv-x="632" d="M18 1788q0 27 211 27q59 0 77 -8.5t56 -59.5q148 -188 148 -219q0 -20 -115 -21q-96 0 -117.5 8.5t-74.5 65.5q-14 20 -137 145q-47 49 -48 62zM102 78q0 -20 2 84l5 209q4 207 20 798l4 115q2 68 12.5 81t63.5 13q-2 0 254 -8q47 -2 58 -9t11 -36q0 25 -14 -399 q-14 -412 -20 -875q0 -35 -15.5 -43t-50.5 -8h-90q-18 0 -39 -2h-29q-145 0 -158.5 10t-13.5 70z" />
<glyph unicode="&#xcd;" horiz-adv-x="632" d="M102 78q0 -20 2 84l5 209q4 207 20 798l4 115q2 68 12.5 81t63.5 13q-2 0 254 -8q47 -2 58 -9t11 -36q0 25 -14 -399q-14 -412 -20 -875q0 -35 -15.5 -43t-50.5 -8h-90q-18 0 -39 -2h-29q-145 0 -158.5 10t-13.5 70zM186 1526q0 16 56 73q45 47 112 132q43 55 67.5 66 t92.5 11q94 0 176 -4q51 -2 51 -18q0 -14 -204 -189q-78 -66 -98.5 -77t-61.5 -11h-127l-33 2q-31 -2 -31 15z" />
<glyph unicode="&#xce;" horiz-adv-x="632" d="M-72 1534q0 27 213 190q27 20 74 62q39 33 115 33q147 0 168 -11q35 -18 133 -143l57 -74q43 -55 43 -65q0 -18 -108 -19q-16 0 -93 4q-49 2 -73 37q-66 92 -95 123q-27 -25 -86 -76q-68 -61 -89 -71.5t-81 -10.5q-18 0 -104 5l-43 2q-31 -2 -31 14zM100 78q0 -20 2 84 l4 209q10 500 21 798l4 115q2 68 12.5 81t63.5 13q23 0 252 -8q47 -2 58 -8t11 -35v-20q-2 -18 -2 -31l-2 -102l-10 -248q-12 -293 -20 -875q0 -27 -11.5 -39t-54.5 -12h-88q-20 0 -41 -2h-27q-143 0 -157.5 11t-14.5 69z" />
<glyph unicode="&#xcf;" horiz-adv-x="632" d="M49 1618q0 66 46 114t108 48q106 0 106 -117q0 -68 -42 -114t-101 -46q-51 0 -84 32t-33 83zM102 78q0 -20 2 84l5 209q4 207 20 798l4 115q2 68 12.5 81t63.5 13q-2 0 254 -8q47 -2 58 -9t11 -36q0 25 -14 -399q-14 -412 -20 -875q0 -35 -15.5 -43t-50.5 -8h-90 q-18 0 -39 -2h-29q-145 0 -158.5 10t-13.5 70zM379 1620q0 70 41 116t104 46q47 0 79 -36t32 -91q0 -61 -42 -106.5t-99 -45.5q-51 0 -83 33t-32 84z" />
<glyph unicode="&#xd0;" horiz-adv-x="1478" d="M-8 641q0 135 14 158q10 16 127 16q2 82 8 428q2 102 34 118.5t220 16.5q362 0 525 -47q229 -68 362 -243.5t133 -411.5q0 -248 -144.5 -424t-387.5 -227q-137 -29 -457 -29q-207 0 -262 14q-29 8 -31 99l-2 94q-2 94 -2 205v167l2 31h-80q-43 0 -51 8.5t-8 26.5z M526 270q37 -4 76 -4q188 0 296 109.5t108 302.5t-106.5 312.5t-278.5 119.5q-33 0 -82 -8l-7 -283q61 0 80 -2h54q70 0 69 -26q0 -125 -11 -154t-62 -29h-37q-18 0 -41 2h-27h-29z" />
<glyph unicode="&#xd1;" horiz-adv-x="1585" d="M102 68v20q2 20 2 35l2 180q10 864 31 1028q4 33 31 40t147 7h52l77 -2q45 -2 61.5 -8t39.5 -33q276 -328 555 -708q23 -31 35 -45l4 108q6 172 14 545q0 47 2 63q4 49 18.5 62.5t100.5 13.5h72q18 0 43 2h26q41 0 55.5 -13t14.5 -52q0 -135 -31 -744q-6 -113 -12 -432 q0 -53 -8 -115q-18 -31 -86 -28l-103 2h-57q-72 0 -103 37q-29 45 -86 129q-4 6 -84 108q-6 10 -41 56q-59 74 -145 184l-92 119q-39 51 -199 250v-60l-4 -278q-2 -246 -12 -519q-4 -16 -36 -19t-175 -3q-80 0 -94.5 9t-14.5 61zM418 1532q0 70 74 149q84 92 229 93 q61 0 158 -25l10 -2q88 -23 127 -23q43 0 80 50q14 20 43 20q25 0 41 -2h57q20 2 41 2q29 0 29 -18q0 -59 -78 -150q-88 -102 -195 -102q-66 0 -200 32l-62 15q-35 8 -51 8q-35 0 -84 -55q-20 -23 -133 -23q-86 0 -86 31z" />
<glyph unicode="&#xd2;" horiz-adv-x="1687" d="M66 694q0 322 228 523.5t593 201.5q326 0 531.5 -196.5t205.5 -507.5q0 -330 -217 -546t-549 -216q-348 0 -570 208t-222 533zM485 674q0 -207 95.5 -325t263.5 -118q178 0 293.5 137.5t115.5 350.5q0 195 -99 309.5t-269 114.5q-147 0 -256 -90q-143 -119 -144 -379z M559 1788q0 27 211 27q59 0 76.5 -8.5t56.5 -59.5q148 -188 148 -219q0 -20 -115 -21q-96 0 -117.5 8.5t-75.5 65.5q-14 20 -137 145q-47 49 -47 62z" />
<glyph unicode="&#xd3;" horiz-adv-x="1687" d="M66 694q0 322 228 523.5t593 201.5q326 0 531.5 -196.5t205.5 -507.5q0 -330 -217 -546t-549 -216q-348 0 -570 208t-222 533zM485 674q0 -207 95.5 -325t263.5 -118q178 0 293.5 137.5t115.5 350.5q0 195 -99 309.5t-269 114.5q-147 0 -256 -90q-143 -119 -144 -379z M688 1526q0 16 55 73q45 47 113 132q43 55 67.5 66t92.5 11q94 0 176 -4q51 -2 51 -18q0 -14 -205 -189q-78 -66 -98 -77t-61 -11h-127l-33 2q-31 -2 -31 15z" />
<glyph unicode="&#xd4;" horiz-adv-x="1687" d="M66 694q0 322 228 523.5t593 201.5q326 0 531.5 -196.5t205.5 -507.5q0 -330 -217 -546t-549 -216q-348 0 -570 208t-222 533zM430 1534q0 23 234 190l81 62q43 33 125 33q162 0 187 -11q51 -23 149 -143q20 -25 64.5 -76t44.5 -61q0 -20 -131 -21q-66 0 -111 9 q-20 4 -96 90q-37 41 -72 71q-37 -27 -102 -78q-74 -59 -98.5 -72.5t-59.5 -13.5q-25 0 -127 5l-51 2q-37 -4 -37 14zM485 674q0 -207 95.5 -325t263.5 -118q178 0 293.5 137.5t115.5 350.5q0 195 -99 309.5t-269 114.5q-147 0 -256 -90q-143 -119 -144 -379z" />
<glyph unicode="&#xd5;" horiz-adv-x="1687" d="M66 694q0 322 228 523.5t593 201.5q326 0 531.5 -196.5t205.5 -507.5q0 -330 -217 -546t-549 -216q-348 0 -570 208t-222 533zM469 1532q0 70 74 149q84 92 229 93q61 0 158 -25l10 -2q88 -23 127 -23q43 0 80 50q14 20 43 20q25 0 41 -2h57q20 2 41 2q29 0 29 -18 q0 -59 -78 -150q-88 -102 -195 -102q-66 0 -200 32l-62 15q-35 8 -51 8q-35 0 -84 -55q-20 -23 -133 -23q-86 0 -86 31zM485 674q0 -207 95.5 -325t263.5 -118q178 0 293.5 137.5t115.5 350.5q0 195 -99 309.5t-269 114.5q-147 0 -256 -90q-143 -119 -144 -379z" />
<glyph unicode="&#xd6;" horiz-adv-x="1687" d="M66 694q0 322 228 523.5t593 201.5q326 0 531.5 -196.5t205.5 -507.5q0 -330 -217 -546t-549 -216q-348 0 -570 208t-222 533zM485 674q0 -207 95.5 -325t263.5 -118q178 0 293.5 137.5t115.5 350.5q0 195 -99 309.5t-269 114.5q-147 0 -256 -90q-143 -119 -144 -379z M549 1616q0 70 51 124t117 54q117 0 117 -129q0 -74 -46.5 -125t-111.5 -51q-57 0 -92 35t-35 92zM967 1616q0 78 45 128t114 50q53 0 87 -39t34 -98q0 -70 -46 -119t-109 -49q-55 0 -90 35t-35 92z" />
<glyph unicode="&#xd7;" d="M182 954q0 12 66.5 72.5t85.5 60.5q18 0 82 -65q35 -33 102 -100l90 -91q20 20 88 91q174 178 189 178q12 0 72.5 -66.5t60.5 -85.5q0 -20 -64 -82q-125 -123 -190 -190l242 -240q24 -25 24 -39t-26 -37q-16 -14 -46 -38l-22 -19q-41 -37 -53 -37q-23 0 -275 252 q-47 -45 -205 -205q-59 -61 -75 -61t-38 26.5t-69 77.5q-25 29 -24 43q0 23 254 277l-95 92q-174 170 -174 186z" />
<glyph unicode="&#xd8;" horiz-adv-x="1687" d="M66 696q0 360 278 559q229 164 528 164q182 0 320 -55q12 20 35 59q16 33 33 58q18 37 49 37q16 0 59 -23q18 -8 39 -20q43 -20 43 -41q0 -20 -92 -160q266 -209 266 -561q0 -330 -217 -545t-549 -215q-186 0 -362 72q-92 -176 -119 -177q-20 0 -94 52q-51 35 -52 55 q0 8 37 63q10 14 66 101q-268 217 -268 577zM455 676q0 -186 71 -309q297 440 518 784q-84 29 -153 29q-166 0 -281 -97q-156 -131 -155 -407zM647 246q88 -51 199 -51q190 0 315 149.5t125 378.5q0 205 -104 330q-326 -498 -535 -807z" />
<glyph unicode="&#xd9;" horiz-adv-x="1503" d="M84 733q0 119 16.5 336t30.5 272q8 33 37 38t190 5q113 0 139.5 -7t26.5 -38q0 -23 -28 -325q-23 -238 -23 -406q0 -379 260 -379q246 0 254 295l19 731q2 115 36.5 125.5t178.5 10.5q129 0 141 -2q39 -3 39 -56v-28q-2 -25 -2 -43v-111q0 -86 -4 -250q-6 -229 -11 -424 l-6 -327q0 -35 -27.5 -45.5t-142.5 -20.5q-141 -12 -290 -76q-170 -72 -279 -71q-121 0 -238.5 64.5t-191.5 170.5q-125 182 -125 561zM465 1788q0 27 211 27q59 0 76.5 -8.5t56.5 -59.5q147 -188 147 -219q0 -20 -114 -21q-96 0 -118 8.5t-75 65.5q-14 20 -137 145 q-47 49 -47 62z" />
<glyph unicode="&#xda;" horiz-adv-x="1503" d="M84 733q0 119 16.5 336t30.5 272q8 33 37 38t190 5q113 0 139.5 -7t26.5 -38q0 -23 -28 -325q-23 -238 -23 -406q0 -379 260 -379q246 0 254 295l19 731q2 115 36.5 125.5t178.5 10.5q129 0 141 -2q39 -3 39 -56v-28q-2 -25 -2 -43v-111q0 -86 -4 -250q-6 -229 -11 -424 l-6 -327q0 -35 -27.5 -45.5t-142.5 -20.5q-141 -12 -290 -76q-170 -72 -279 -71q-121 0 -238.5 64.5t-191.5 170.5q-125 182 -125 561zM594 1526q0 12 55 73q27 31 62 70l51 60q47 55 69.5 66t90.5 11q113 0 176 -4q51 -4 51 -18q0 -12 -205 -187q-78 -66 -98.5 -77 t-67.5 -11h-121l-32 2q-31 -2 -31 15z" />
<glyph unicode="&#xdb;" horiz-adv-x="1503" d="M84 733q0 119 16.5 336t30.5 272q8 33 37 38t190 5q113 0 139.5 -7t26.5 -38q0 -23 -28 -325q-23 -238 -23 -406q0 -379 260 -379q246 0 254 295l19 731q2 115 36.5 125.5t178.5 10.5q129 0 141 -2q39 -3 39 -56v-28q-2 -25 -2 -43v-111q0 -86 -4 -250q-6 -229 -11 -424 l-6 -327q0 -35 -27.5 -45.5t-142.5 -20.5q-141 -12 -290 -76q-170 -72 -279 -71q-121 0 -238.5 64.5t-191.5 170.5q-125 182 -125 561zM322 1534q0 23 233 190l82 62q43 33 125 33q162 0 186 -11q51 -23 150 -143q20 -25 64 -76t44 -61q0 -20 -131 -21q-66 0 -110 9 q-20 4 -97 90q-37 41 -71 71q-37 -27 -103 -78q-74 -59 -98.5 -72.5t-58.5 -13.5q-25 0 -127 5l-52 2q-37 -4 -36 14z" />
<glyph unicode="&#xdc;" horiz-adv-x="1503" d="M84 733q0 119 16.5 336t30.5 272q8 33 37 38t190 5q113 0 139.5 -7t26.5 -38q0 -23 -28 -325q-23 -238 -23 -406q0 -379 260 -379q246 0 254 295l19 731q2 115 36.5 125.5t178.5 10.5q129 0 141 -2q39 -3 39 -56v-28q-2 -25 -2 -43v-111q0 -86 -4 -250q-6 -229 -11 -424 l-6 -327q0 -35 -27.5 -45.5t-142.5 -20.5q-141 -12 -290 -76q-170 -72 -279 -71q-121 0 -238.5 64.5t-191.5 170.5q-125 182 -125 561zM455 1616q0 70 51 124t117 54q116 0 116 -129q0 -74 -46 -125t-111 -51q-57 0 -92 35t-35 92zM872 1616q0 78 45.5 128t114.5 50 q53 0 87 -39t34 -98q0 -70 -46 -119t-110 -49q-55 0 -90 35t-35 92z" />
<glyph unicode="&#xdd;" horiz-adv-x="1218" d="M-47 1331q0 23 45 29l203 29q33 4 92 12q29 4 39 4q35 0 65 -55q23 -41 95 -150q31 -47 116 -180q23 -25 39 -59q6 -8 21 -29q111 201 219 368q49 76 63.5 91.5t36.5 15.5q68 0 193 -27q102 -22 102 -47q0 -47 -461 -702q2 -23 2 -41q0 -336 -12 -531q-2 -47 -30.5 -55 t-196.5 -8q-127 0 -143.5 13.5t-16.5 96.5q0 61 6 261q2 94 6 262q-4 6 -190 266q-293 410 -293 436zM508 1526q0 16 55 73q45 47 113 132q43 55 67.5 66t92.5 11q94 0 176 -4q51 -2 51 -18q0 -14 -205 -189q-78 -66 -98.5 -77t-61.5 -11h-127l-32 2q-31 -2 -31 15z" />
<glyph unicode="&#xde;" horiz-adv-x="1234" d="M102 139q0 395 17 910l6 192q2 96 9 117.5t36 25.5q39 6 176 5l115 -3q51 0 49 -53l-4 -141q29 2 67 2q270 0 459 -129q82 -57 132 -154.5t50 -203.5q0 -250 -213 -388q-143 -92 -393 -92q-74 0 -125 6q2 -31 2 -67q0 -102 -5 -127t-27 -31q-29 -8 -224 -8h-36 q-63 0 -72 8q-18 16 -19 131zM489 483q47 -8 80 -8q137 0 215 67.5t78 186.5q0 113 -75.5 174.5t-215.5 61.5q-37 0 -67 -2z" />
<glyph unicode="&#xdf;" horiz-adv-x="1163" d="M86 84q0 322 33 803q20 291 174 411q143 113 352 113q190 0 307 -91t117 -241q0 -199 -217 -303q127 -33 188 -94q90 -92 90 -231q0 -104 -51 -210t-133 -171q-117 -92 -323 -93q-117 0 -117 39q0 74 18 166q8 37 45 37q94 -2 156.5 65.5t62.5 170.5q0 176 -213 190 q-41 2 -40 53q0 94 8 144q4 20 12 26t57 23q150 47 150 190q0 51 -32 82t-81 31q-84 0 -127 -88q-23 -45 -29 -106.5t-20 -372.5q-8 -195 -16 -529q-2 -76 -15.5 -89t-85.5 -13h-80q-137 0 -163.5 12t-26.5 76z" />
<glyph unicode="&#xe0;" horiz-adv-x="1073" d="M43 209q0 156 145.5 249t386.5 93h31q-8 88 -46 123t-130 35q-82 0 -192 -21q-23 -4 -31 -4q-27 0 -42 57.5t-15 89.5q0 37 75 58q125 33 258 33q281 0 408 -144q53 -61 73.5 -146t20.5 -251q0 -262 -11 -305t-63 -43h-28q-16 0 -49 2h-41q-117 0 -371 -49 q-53 -10 -113 -11q-125 0 -195.5 62.5t-70.5 171.5zM279 1335q0 33 182 33q63 0 78.5 -26.5t52.5 -124.5q53 -146 53 -164q0 -25 -96 -25q-78 0 -95.5 8t-52.5 74q-45 76 -92 160l-20 37q-10 18 -10 28zM391 242q0 -82 101 -82q59 0 122 28l4 156q0 35 -2 59 q-225 -31 -225 -161z" />
<glyph unicode="&#xe1;" horiz-adv-x="1073" d="M43 209q0 156 145.5 249t386.5 93h31q-8 88 -46 123t-130 35q-82 0 -192 -21q-23 -4 -31 -4q-27 0 -42 57.5t-15 89.5q0 37 75 58q125 33 258 33q281 0 408 -144q53 -61 73.5 -146t20.5 -251q0 -262 -11 -305t-63 -43h-28q-16 0 -49 2h-41q-117 0 -371 -49 q-53 -10 -113 -11q-125 0 -195.5 62.5t-70.5 171.5zM391 242q0 -82 101 -82q59 0 122 28l4 156q0 35 -2 59q-225 -31 -225 -161zM424 1051q0 16 33 77l43 80l30 68q27 59 46.5 73.5t80.5 12.5l148 -4q47 -2 47 -25q0 -14 -170 -233q-43 -57 -58.5 -63.5t-113.5 -6.5 q-86 0 -86 21z" />
<glyph unicode="&#xe2;" horiz-adv-x="1073" d="M43 209q0 156 145.5 249t386.5 93h31q-8 88 -46 123t-130 35q-82 0 -192 -21q-23 -4 -31 -4q-27 0 -42 57.5t-15 89.5q0 37 75 58q125 33 258 33q281 0 408 -144q53 -61 73.5 -146t20.5 -251q0 -262 -11 -305t-63 -43h-28q-16 0 -49 2h-41q-117 0 -371 -49 q-53 -10 -113 -11q-125 0 -195.5 62.5t-70.5 171.5zM143 1057q0 20 215 211l76 67q43 37 117 37q147 0 170 -12q49 -29 137 -158q37 -55 57 -82q43 -57 43 -71q0 -20 -110 -21q-70 0 -115 10q-33 8 -92 107q-25 41 -59 86q-63 -66 -88 -94q-88 -102 -156 -103q-27 0 -117 4 l-45 2q-33 -4 -33 17zM391 242q0 -82 101 -82q59 0 122 28l4 156q0 35 -2 59q-225 -31 -225 -161z" />
<glyph unicode="&#xe3;" horiz-adv-x="1073" d="M43 209q0 156 145.5 249t386.5 93h31q-8 88 -46 123t-130 35q-82 0 -192 -21q-23 -4 -31 -4q-27 0 -42 57.5t-15 89.5q0 37 75 58q125 33 258 33q281 0 408 -144q53 -61 73.5 -146t20.5 -251q0 -262 -11 -305t-63 -43h-28q-16 0 -49 2h-41q-117 0 -371 -49 q-53 -10 -113 -11q-125 0 -195.5 62.5t-70.5 171.5zM152 1077q0 66 67 146q74 88 203 88q55 0 145 -31l8 -2q84 -29 117 -29q43 0 70 56q12 27 39 26q10 0 32.5 -2t32.5 -2q16 0 25 2l35 2q26 3 26 -28q0 -55 -69 -146q-76 -98 -174 -98q-66 0 -183 39q-80 27 -104 26 q-39 0 -74 -59q-14 -27 -117 -27q-80 0 -79 39zM391 242q0 -82 101 -82q59 0 122 28l4 156q0 35 -2 59q-225 -31 -225 -161z" />
<glyph unicode="&#xe4;" horiz-adv-x="1073" d="M43 209q0 156 145.5 249t386.5 93h31q-8 88 -46 123t-130 35q-82 0 -192 -21q-23 -4 -31 -4q-27 0 -42 57.5t-15 89.5q0 37 75 58q125 33 258 33q281 0 408 -144q53 -61 73.5 -146t20.5 -251q0 -262 -11 -305t-63 -43h-28q-16 0 -49 2h-41q-117 0 -371 -49 q-53 -10 -113 -11q-125 0 -195.5 62.5t-70.5 171.5zM238 1153q0 68 50 120t113 52q113 0 113 -123q0 -72 -44 -122t-108 -50q-57 0 -90.5 34t-33.5 89zM391 242q0 -82 101 -82q59 0 122 28l4 156q0 35 -2 59q-225 -31 -225 -161zM643 1155q0 74 44 123t112 49q51 0 85 -37 t34 -96q0 -68 -45.5 -116t-106.5 -48q-55 0 -89 34t-34 91z" />
<glyph unicode="&#xe5;" horiz-adv-x="1073" d="M43 209q0 156 145.5 249t386.5 93h31q-8 88 -46 123t-130 35q-82 0 -192 -21q-23 -4 -31 -4q-27 0 -42 57.5t-15 89.5q0 37 75 58q125 33 258 33q281 0 408 -144q53 -61 73.5 -146t20.5 -251q0 -262 -11 -305t-63 -43h-28q-16 0 -49 2h-41q-117 0 -371 -49 q-53 -10 -113 -11q-125 0 -195.5 62.5t-70.5 171.5zM344 1182q0 94 70.5 156.5t177.5 62.5q86 0 139 -53.5t53 -139.5q0 -92 -66.5 -154.5t-162.5 -62.5q-88 0 -149.5 55.5t-61.5 135.5zM391 242q0 -82 101 -82q59 0 122 28l4 156q0 35 -2 59q-225 -31 -225 -161zM498 1196 q0 -76 69 -76q76 0 76 78t-70 78q-76 0 -75 -80z" />
<glyph unicode="&#xe6;" horiz-adv-x="1642" d="M31 229q0 150 138 242t363 92q31 0 58 -2q-16 152 -156 152q-113 0 -221 -29q-29 -4 -33 -4q-27 0 -41 56.5t-14 84.5q0 35 43 49q145 47 319 48q166 0 318 -89q170 88 340 89q172 0 291 -74q166 -103 166 -363q0 -63 -12.5 -84.5t-53.5 -21.5q-37 0 -57 2 q-143 14 -510 14q6 -199 217 -198q141 0 319 106q37 23 51 23t19.5 -8.5t9.5 -49.5q8 -70 8 -94q0 -39 -69 -86q-186 -125 -437 -125q-182 0 -327 100q-199 -111 -377 -110q-160 0 -256 76.5t-96 203.5zM373 244q0 -41 29.5 -70t72.5 -29q82 1 172 56q-49 98 -55 184 q-100 -4 -159.5 -43t-59.5 -98zM981 569q37 2 82 2q98 0 184 -6q2 16 2 45q0 117 -114 117q-133 0 -154 -158z" />
<glyph unicode="&#xe7;" horiz-adv-x="1015" d="M55 432q0 211 156 343t403 132q174 0 344 -67q39 -16 39 -39q0 -37 -26 -142q-12 -49 -33 -49q-12 0 -66 19q-88 31 -178 30q-106 0 -173.5 -65.5t-67.5 -167.5q0 -100 65.5 -162.5t169.5 -62.5q109 0 264 82q10 6 17 6q18 0 18 -37q0 -82 -16 -152q-12 -55 -137 -96 q-92 -31 -177 -39l-12 -86q115 -27 115 -147q0 -135 -176 -211q-76 -33 -113 -33q-18 0 -35 59l-10 37q-4 14 -4 23q0 18 33 26q113 29 112 107q0 45 -78 70q-18 6 -18 24q0 12 4 33q10 47 17 96q-205 31 -321 155t-116 314z" />
<glyph unicode="&#xe8;" horiz-adv-x="1134" d="M55 428q0 223 157 357.5t415 134.5q221 0 340.5 -117t119.5 -332q0 -94 -75 -94q-35 0 -82 2q-279 12 -443 12h-30q8 -199 202 -198q133 0 363 122q12 6 22 7q14 0 21 -50q10 -78 10 -98q0 -51 -110 -113q-184 -102 -398 -102q-231 0 -371.5 128t-140.5 341zM377 1335 q0 33 182 33q63 0 78.5 -26.5t52.5 -124.5q53 -146 53 -164q0 -25 -96 -25q-78 0 -95 8t-52 74q-45 76 -92 160l-21 37q-10 18 -10 28zM461 569l266 -2q4 37 4 49q0 113 -113 113q-125 0 -157 -160z" />
<glyph unicode="&#xe9;" horiz-adv-x="1134" d="M55 428q0 223 157 357.5t415 134.5q221 0 340.5 -117t119.5 -332q0 -94 -75 -94q-35 0 -82 2q-279 12 -443 12h-30q8 -199 202 -198q133 0 363 122q12 6 22 7q14 0 21 -50q10 -78 10 -98q0 -51 -110 -113q-184 -102 -398 -102q-231 0 -371.5 128t-140.5 341zM461 569 l266 -2q4 37 4 49q0 113 -113 113q-125 0 -157 -160zM483 1051q0 16 33 77l43 80l31 68q27 59 46 73.5t81 12.5l147 -4q47 -2 47 -25q0 -14 -170 -233q-43 -57 -58 -63.5t-114 -6.5q-86 0 -86 21z" />
<glyph unicode="&#xea;" horiz-adv-x="1134" d="M55 428q0 223 157 357.5t415 134.5q221 0 340.5 -117t119.5 -332q0 -94 -75 -94q-35 0 -82 2q-279 12 -443 12h-30q8 -199 202 -198q133 0 363 122q12 6 22 7q14 0 21 -50q10 -78 10 -98q0 -51 -110 -113q-184 -102 -398 -102q-231 0 -371.5 128t-140.5 341zM215 1057 q0 20 215 211l76 67q43 37 117 37q147 0 170 -12q49 -29 137 -158q37 -55 57 -82q43 -57 43 -71q0 -20 -110 -21q-70 0 -115 10q-33 8 -92 107q-25 41 -60 86q-63 -66 -88 -94q-88 -102 -155 -103q-27 0 -117 4l-45 2q-33 -4 -33 17zM461 569l266 -2q4 37 4 49 q0 113 -113 113q-125 0 -157 -160z" />
<glyph unicode="&#xeb;" horiz-adv-x="1134" d="M55 428q0 223 157 357.5t415 134.5q221 0 340.5 -117t119.5 -332q0 -94 -75 -94q-35 0 -82 2q-279 12 -443 12h-30q8 -199 202 -198q133 0 363 122q12 6 22 7q14 0 21 -50q10 -78 10 -98q0 -51 -110 -113q-184 -102 -398 -102q-231 0 -371.5 128t-140.5 341zM283 1153 q0 68 50 120t113 52q113 0 113 -123q0 -72 -44 -122t-107 -50q-57 0 -91 34t-34 89zM461 569l266 -2q4 37 4 49q0 113 -113 113q-125 0 -157 -160zM688 1155q0 74 44 123t112 49q51 0 85 -37t34 -96q0 -68 -45.5 -116t-106.5 -48q-55 0 -89 34t-34 91z" />
<glyph unicode="&#xec;" horiz-adv-x="561" d="M51 1335q0 33 182 33q63 0 79 -26.5t53 -124.5q53 -146 53 -164q0 -25 -96 -25q-78 0 -95.5 8t-52.5 74q-45 76 -92 160l-21 37q-10 18 -10 28zM94 59q0 18 15 557q2 104 10 226q4 20 94 20h31q25 -2 69 -2h64q78 0 90 -10t12 -76l-10 -553l-2 -110q-2 -63 -7 -83 t-28.5 -27t-171.5 -7q-41 0 -113 6q-53 4 -53 59z" />
<glyph unicode="&#xed;" horiz-adv-x="561" d="M92 59q0 18 14 557q2 104 11 226q4 20 94 20h31q25 -2 69 -2h64q78 0 90 -10t12 -76l-10 -553l-2 -110q-2 -63 -7 -83t-28.5 -27t-171.5 -7q-41 0 -113 6q-53 4 -53 59zM168 1051q0 16 33 77l43 80l30 68q27 59 46.5 73.5t80.5 12.5l148 -4q47 -2 47 -25q0 -14 -170 -233 q-43 -57 -58.5 -63.5t-113.5 -6.5q-86 0 -86 21z" />
<glyph unicode="&#xee;" horiz-adv-x="561" d="M-86 1057q0 25 201 211q16 14 47 45q4 4 24 22q37 37 107 37q141 0 160 -12q41 -23 127 -158q33 -53 53 -82q41 -59 41 -71q0 -20 -92 -21q-35 0 -88.5 4t-75.5 45q-53 94 -92 148q-27 -29 -84 -90q-68 -76 -87.5 -88.5t-76.5 -12.5q-25 0 -98 4l-37 2q-29 2 -29 17z M92 59q0 20 14 557q2 104 11 226q4 20 94 20h31q27 -2 71 -2h62q78 0 90 -10.5t12 -73.5q0 -334 -8 -555l-4 -110q-2 -66 -8 -83.5t-30 -25.5t-169 -8q-41 0 -113 6q-53 4 -53 59z" />
<glyph unicode="&#xef;" horiz-adv-x="561" d="M53 1155q0 61 45 108.5t103 47.5q102 0 102 -113q0 -66 -40 -110t-97 -44q-51 0 -82 31t-31 80zM92 59q0 18 14 557q2 104 11 226q4 20 94 20h31q25 -2 69 -2h64q78 0 90 -10t12 -76l-10 -553l-2 -110q-2 -63 -7 -83t-28.5 -27t-171.5 -7q-41 0 -113 6q-53 4 -53 59z M369 1157q0 66 40 110t99 44q47 0 76.5 -34t29.5 -85q0 -61 -39.5 -104.5t-95.5 -43.5q-111 0 -110 113z" />
<glyph unicode="&#xf0;" horiz-adv-x="1216" d="M55 426q0 211 161 346t413 135q61 0 119 -10q-39 78 -109 178q-129 -88 -145 -88q-12 0 -33 33q-43 68 -43 76q0 16 119 96l12 8q-14 23 -41 64t-27 51q0 29 63.5 77t100.5 48q29 0 113 -103q12 6 33 21l53 35q43 29 53 28q10 0 57 -71q20 -31 21 -43q0 -10 -121 -90 q307 -414 307 -752q0 -236 -148.5 -372t-402.5 -136q-250 0 -402.5 129t-152.5 340zM442 403q0 -225 172 -225q98 0 154.5 77t56.5 214q0 236 -172 236q-139 0 -186 -132q-25 -68 -25 -170z" />
<glyph unicode="&#xf1;" horiz-adv-x="1193" d="M96 55q0 2 2 33v57v181l6 372q2 80 7 99q14 43 71 43q-8 0 41 -2q96 -4 139 -4q84 0 209 34q133 37 209 37q211 0 293 -200q39 -97 39 -322q0 -106 -4 -178l-6 -107q-4 -74 -26.5 -86t-160.5 -16l-139 -4q-49 -2 -49 57q0 45 2 82q6 111 6 307q0 137 -31.5 197.5 t-103.5 60.5q-43 0 -125 -26l2 -78v-70q-2 -94 -2 -274v-139q0 -80 -15.5 -93.5t-109.5 -15.5l-166 -4q-68 0 -80 20q-8 12 -8 39zM225 1077q0 66 68 146q74 88 203 88q55 0 145 -31l8 -2q84 -29 117 -29q43 0 70 56q12 27 38 26q10 0 33 -2t33 -2q16 0 25 2l34 2 q27 3 27 -28q0 -55 -70 -146q-76 -98 -174 -98q-66 0 -182 39q-80 27 -104 26q-39 0 -74 -59q-14 -27 -117 -27q-80 0 -80 39z" />
<glyph unicode="&#xf2;" horiz-adv-x="1216" d="M55 424q0 219 167 350t446 131q229 0 361 -116.5t132 -321.5q0 -236 -147.5 -373t-403.5 -137q-250 0 -402.5 128t-152.5 339zM377 1335q0 33 182 33q63 0 78.5 -26.5t52.5 -124.5q53 -146 53 -164q0 -25 -96 -25q-78 0 -95 8t-52 74q-45 76 -92 160l-21 37 q-10 18 -10 28zM459 406q0 -203 155 -203q92 0 143.5 69.5t51.5 192.5q0 215 -156 215q-129 0 -172 -119q-23 -61 -22 -155z" />
<glyph unicode="&#xf3;" horiz-adv-x="1216" d="M55 424q0 219 167 350t446 131q229 0 361 -116.5t132 -321.5q0 -236 -147.5 -373t-403.5 -137q-250 0 -402.5 128t-152.5 339zM459 406q0 -203 155 -203q92 0 143.5 69.5t51.5 192.5q0 215 -156 215q-129 0 -172 -119q-23 -61 -22 -155zM496 1051q0 16 32 77l43 80l31 68 q27 59 46.5 73.5t80.5 12.5l148 -4q47 -2 47 -25q0 -14 -170 -233q-43 -57 -58.5 -63.5t-113.5 -6.5q-86 0 -86 21z" />
<glyph unicode="&#xf4;" horiz-adv-x="1216" d="M55 424q0 219 167 350t446 131q229 0 361 -116.5t132 -321.5q0 -236 -147.5 -373t-403.5 -137q-250 0 -402.5 128t-152.5 339zM215 1057q0 20 215 211l76 67q43 37 117 37q147 0 170 -12q49 -29 137 -158q37 -55 57 -82q43 -57 43 -71q0 -20 -110 -21q-70 0 -115 10 q-33 8 -92 107q-25 41 -60 86q-63 -66 -88 -94q-88 -102 -155 -103q-27 0 -117 4l-45 2q-33 -4 -33 17zM459 406q0 -203 155 -203q92 0 143.5 69.5t51.5 192.5q0 215 -156 215q-129 0 -172 -119q-23 -61 -22 -155z" />
<glyph unicode="&#xf5;" horiz-adv-x="1216" d="M55 424q0 219 167 350t446 131q229 0 361 -116.5t132 -321.5q0 -236 -147.5 -373t-403.5 -137q-250 0 -402.5 128t-152.5 339zM250 1077q0 66 67 146q74 88 203 88q55 0 146 -31l8 -2q84 -29 117 -29q43 0 69 56q12 27 39 26q10 0 32.5 -2t33.5 -2q16 0 24 2l35 2 q27 3 27 -28q0 -55 -70 -146q-76 -98 -174 -98q-66 0 -182 39q-80 27 -105 26q-39 0 -74 -59q-14 -27 -116 -27q-80 0 -80 39zM459 406q0 -203 155 -203q92 0 143.5 69.5t51.5 192.5q0 215 -156 215q-129 0 -172 -119q-23 -61 -22 -155z" />
<glyph unicode="&#xf6;" horiz-adv-x="1216" d="M55 424q0 219 167 350t446 131q229 0 361 -116.5t132 -321.5q0 -236 -147.5 -373t-403.5 -137q-250 0 -402.5 128t-152.5 339zM324 1153q0 68 50 120t113 52q113 0 113 -123q0 -72 -44 -122t-107 -50q-57 0 -91 34t-34 89zM459 406q0 -203 155 -203q92 0 143.5 69.5 t51.5 192.5q0 215 -156 215q-129 0 -172 -119q-23 -61 -22 -155zM729 1155q0 74 44 123t112 49q51 0 85 -37t34 -96q0 -68 -45.5 -116t-106.5 -48q-55 0 -89 34t-34 91z" />
<glyph unicode="&#xf7;" d="M102 598v20l4 60q4 68 10.5 84t30.5 18q55 6 271 6h61q51 -2 88 -2h133q6 0 68.5 2t181.5 2h19l63 -2q55 -2 66.5 -6t11.5 -22q0 -55 -6 -146q-2 -35 -25 -43q-12 -4 -57 -4l-121 2q-33 0 -141 -2q-86 -2 -606 -2q-51 0 -52 35zM430 293q0 66 58.5 122t125.5 56 q53 0 98.5 -48.5t45.5 -105.5q0 -59 -51.5 -108t-114.5 -49q-61 0 -111.5 41t-50.5 92zM459 1012q0 68 56 124t124 56q53 0 96 -47.5t43 -106.5q0 -63 -50 -114.5t-112 -51.5q-66 0 -111.5 41t-45.5 99z" />
<glyph unicode="&#xf8;" horiz-adv-x="1216" d="M55 424q0 227 164 350q174 131 443 131q109 0 206 -28q20 27 60 94q12 23 30 22q31 0 105 -49q41 -20 41 -39q0 -14 -74 -114q131 -119 131 -326q0 -236 -147.5 -372t-401.5 -136q-127 0 -227 31q-20 -31 -57 -84q-20 -33 -41 -33q-27 0 -85.5 37t-58.5 53q0 6 33 49 q10 16 33 47l12 17q-166 139 -166 350zM416 399q0 -59 12 -110q67 88 315 420q-43 16 -81 16q-164 0 -218 -141q-29 -76 -28 -185zM520 176q45 -18 90 -18q115 0 178.5 82.5t63.5 234.5q0 55 -14 121z" />
<glyph unicode="&#xf9;" horiz-adv-x="1183" d="M80 500q0 309 16 346q12 20 68 20h22q20 -2 37 -2h170q68 0 68 -43q0 -14 -2 -22q-6 -76 -6 -234q0 -254 41 -325.5t118 -71.5q49 0 93 20q16 418 16 537v39v41q-2 20 -2 22q0 47 57 47l256 -2q43 0 50.5 -17.5t7.5 -119.5q0 -248 -9 -538q-2 -100 -17 -132t-60 -32 q-18 0 -54.5 2t-54.5 2q-133 0 -256 -35q-129 -37 -195 -37q-195 0 -292 180q-72 131 -72 355zM348 1335q0 33 182 33q63 0 79 -26.5t53 -124.5q53 -146 53 -164q0 -25 -97 -25q-78 0 -95 8t-52 74q-45 76 -92 160l-21 37q-10 18 -10 28z" />
<glyph unicode="&#xfa;" horiz-adv-x="1183" d="M80 500q0 309 16 346q12 20 68 20h22q20 -2 37 -2h170q68 0 68 -43q0 -14 -2 -22q-6 -76 -6 -234q0 -254 41 -325.5t118 -71.5q49 0 93 20q16 418 16 537v39v41q-2 20 -2 22q0 47 57 47l256 -2q43 0 50.5 -17.5t7.5 -119.5q0 -248 -9 -538q-2 -100 -17 -132t-60 -32 q-18 0 -54.5 2t-54.5 2q-133 0 -256 -35q-129 -37 -195 -37q-195 0 -292 180q-72 131 -72 355zM479 1051q0 16 33 77l43 80l31 68q27 59 46 73.5t81 12.5l147 -4q47 -2 47 -25q0 -14 -170 -233q-43 -57 -58 -63.5t-114 -6.5q-86 0 -86 21z" />
<glyph unicode="&#xfb;" horiz-adv-x="1183" d="M80 500q0 309 16 346q12 20 68 20h22q20 -2 37 -2h170q68 0 68 -43q0 -14 -2 -22q-6 -76 -6 -234q0 -254 41 -325.5t118 -71.5q49 0 93 20q16 418 16 537v39v41q-2 20 -2 22q0 47 57 47l256 -2q43 0 50.5 -17.5t7.5 -119.5q0 -248 -9 -538q-2 -100 -17 -132t-60 -32 q-18 0 -54.5 2t-54.5 2q-133 0 -256 -35q-129 -37 -195 -37q-195 0 -292 180q-72 131 -72 355zM184 1057q0 20 215 211l76 67q43 37 117 37q147 0 170 -12q49 -29 137 -158q37 -55 57 -82q43 -57 43 -71q0 -20 -110 -21q-70 0 -115 10q-33 8 -92 107q-25 41 -59 86 q-63 -66 -88 -94q-88 -102 -156 -103q-27 0 -117 4l-45 2q-33 -4 -33 17z" />
<glyph unicode="&#xfc;" horiz-adv-x="1183" d="M80 500q0 309 16 346q12 20 68 20h22q20 -2 37 -2h170q68 0 68 -43q0 -14 -2 -22q-6 -76 -6 -234q0 -254 41 -325.5t118 -71.5q49 0 93 20q16 418 16 537v39v41q-2 20 -2 22q0 47 57 47l256 -2q43 0 50.5 -17.5t7.5 -119.5q0 -248 -9 -538q-2 -100 -17 -132t-60 -32 q-18 0 -54.5 2t-54.5 2q-133 0 -256 -35q-129 -37 -195 -37q-195 0 -292 180q-72 131 -72 355zM279 1153q0 68 50 120t113 52q113 0 113 -123q0 -72 -44 -122t-108 -50q-57 0 -90.5 34t-33.5 89zM684 1155q0 74 44 123t112 49q51 0 84.5 -37t33.5 -96q0 -68 -45 -116 t-106 -48q-55 0 -89 34t-34 91z" />
<glyph unicode="&#xfd;" horiz-adv-x="952" d="M-41 829q0 31 61 35q94 8 230 25q16 2 37 2q41 0 61 -64q14 -47 29 -77q4 -6 16 -37l56 -140q35 -90 77 -178q23 47 80 172q12 27 43 97q6 12 23.5 50t50.5 113q29 68 61 68q12 0 31 -6q141 -33 148 -33q38 -9 38 -29q0 -12 -30 -73q-4 -8 -135 -277q-59 -127 -183 -379 l-186 -374q-31 -57 -90 -173q-27 -55 -55 -55q-31 0 -142 45q-96 39 -96 62q0 12 125 229q37 61 125 221q-154 293 -328 664q-25 53 -39 88q-8 10 -8 24zM391 1051q0 16 33 77l43 80l31 68q27 59 46 73.5t81 12.5l147 -4q47 -2 47 -25q0 -14 -170 -233q-43 -57 -58.5 -63.5 t-113.5 -6.5q-86 0 -86 21z" />
<glyph unicode="&#xfe;" horiz-adv-x="1183" d="M86 -330q0 150 10 672q14 645 17 786l2 136q2 70 6 84q12 31 65 30h254q33 0 39 -14t6 -98l-2 -72l-6 -215q0 -45 -4 -131q158 61 277 61q160 0 270 -126t110 -308q0 -211 -141 -362.5t-336 -151.5q-86 0 -196 45q2 -84 2 -233q0 -221 -10.5 -249t-108.5 -28 q-197 0 -219.5 4t-28.5 35t-6 135zM459 197q53 -27 98 -27q98 0 168 84t70 203q0 96 -53.5 157.5t-137.5 61.5q-66 0 -133 -41q-12 -254 -12 -438z" />
<glyph unicode="&#xff;" horiz-adv-x="952" d="M-41 829q0 31 61 35q94 8 230 25q16 2 37 2q41 0 61 -64q14 -47 29 -77q4 -6 16 -37l56 -140q35 -90 77 -178q23 47 80 172q12 27 43 97q6 12 23.5 50t50.5 113q29 68 61 68q12 0 31 -6q141 -33 148 -33q38 -9 38 -29q0 -12 -30 -73q-4 -8 -135 -277q-59 -127 -183 -379 l-186 -374q-31 -57 -90 -173q-27 -55 -55 -55q-31 0 -142 45q-96 39 -96 62q0 12 125 229q37 61 125 221q-154 293 -328 664q-25 53 -39 88q-8 10 -8 24zM203 1153q0 68 50 120t114 52q112 0 112 -123q0 -72 -44 -122t-107 -50q-57 0 -91 34t-34 89zM608 1155q0 74 44 123 t112 49q51 0 85 -37t34 -96q0 -68 -45 -116t-107 -48q-55 0 -89 34t-34 91z" />
<glyph unicode="&#x152;" horiz-adv-x="2301" d="M102 696q0 360 279 559q231 164 520 164q242 0 408 -139q0 16 2 41q2 39 17 47t79 8h29q113 0 452 -4l277 -4q39 -6 39 -43q0 -33 -15 -156q-6 -45 -16 -54t-55 -9h-50q-43 0 -71.5 2t-32.5 2h-317q0 -43 -2 -145l-3 -103l-2 -33q139 8 424 9q72 0 84.5 -5.5t12.5 -35.5 q0 -129 -17 -193q-4 -16 -42 -19t-242 -3h-222q2 -16 2 -33q0 -182 -6 -287q129 4 529 4q59 0 69.5 -3t12.5 -23q2 -31 2 -160q0 -55 -13.5 -65.5t-89.5 -14.5q-43 -2 -297 -2q-72 0 -112 -2h-54h-82q-264 0 -286.5 8t-22.5 72v28q-172 -152 -405 -151q-319 0 -535 182 q-248 211 -248 561zM522 676q0 -207 96.5 -326t264.5 -119q178 0 293.5 138.5t115.5 351.5q0 193 -99 307.5t-269 114.5q-150 0 -258 -90q-143 -119 -144 -377z" />
<glyph unicode="&#x153;" horiz-adv-x="1857" d="M55 424q0 229 164 350q176 131 438 131q203 0 326 -102q145 117 369 117q219 0 338.5 -117t119.5 -330q0 -96 -75 -96q-37 0 -82 2q-274 12 -443 12h-30q2 -82 37 -127q53 -72 163 -71q139 0 365 122q12 6 20 7q16 0 23 -50q10 -80 10 -98q0 -49 -110 -113 q-180 -102 -392 -102q-211 0 -338 133q-127 -135 -356 -135q-244 0 -395.5 129t-151.5 338zM449 406q0 -203 157 -203q90 0 141.5 69.5t51.5 194.5q0 213 -156 213q-129 0 -172 -119q-23 -61 -22 -155zM1184 569l268 -2l2 49q4 113 -113 113q-125 0 -157 -160z" />
<glyph unicode="&#x178;" horiz-adv-x="1218" d="M-47 1331q0 23 45 29l203 29q33 4 92 12q29 4 39 4q35 0 65 -55q23 -41 95 -150q31 -47 116 -180q23 -25 39 -59q6 -8 21 -29q111 201 219 368q49 76 63.5 91.5t36.5 15.5q68 0 193 -27q102 -22 102 -47q0 -47 -461 -702q2 -23 2 -41q0 -336 -12 -531q-2 -47 -30.5 -55 t-196.5 -8q-127 0 -143.5 13.5t-16.5 96.5q0 61 6 261q2 94 6 262q-4 6 -190 266q-293 410 -293 436zM342 1616q0 70 51 124t117 54q117 0 117 -129q0 -74 -46 -125t-112 -51q-57 0 -92 35t-35 92zM760 1616q0 78 45 128t115 50q53 0 86.5 -39t33.5 -98q0 -70 -46 -119 t-109 -49q-55 0 -90 35t-35 92z" />
<glyph unicode="&#x2c6;" horiz-adv-x="1024" d="M119 1057q0 20 215 211l76 67q43 37 116 37q147 0 170 -12q49 -29 138 -158q37 -55 57 -82q43 -57 43 -71q0 -20 -111 -21q-70 0 -114 10q-33 8 -93 107q-25 41 -59 86q-63 -66 -88 -94q-88 -102 -156 -103q-27 0 -116 4l-45 2q-33 -4 -33 17z" />
<glyph unicode="&#x2dc;" horiz-adv-x="1024" d="M180 1077q0 66 68 146q74 88 203 88q55 0 145 -31l8 -2q84 -29 117 -29q43 0 70 56q12 27 38 26q10 0 33 -2t33 -2q16 0 25 2l34 2q27 3 27 -28q0 -55 -70 -146q-76 -98 -174 -98q-66 0 -182 39q-80 27 -104 26q-39 0 -74 -59q-14 -27 -117 -27q-80 0 -80 39z" />
<glyph unicode="&#x2000;" horiz-adv-x="953" />
<glyph unicode="&#x2001;" horiz-adv-x="1907" />
<glyph unicode="&#x2002;" horiz-adv-x="953" />
<glyph unicode="&#x2003;" horiz-adv-x="1907" />
<glyph unicode="&#x2004;" horiz-adv-x="635" />
<glyph unicode="&#x2005;" horiz-adv-x="476" />
<glyph unicode="&#x2006;" horiz-adv-x="317" />
<glyph unicode="&#x2007;" horiz-adv-x="317" />
<glyph unicode="&#x2008;" horiz-adv-x="238" />
<glyph unicode="&#x2009;" horiz-adv-x="381" />
<glyph unicode="&#x200a;" horiz-adv-x="105" />
<glyph unicode="&#x2010;" horiz-adv-x="880" d="M68 422q0 125 8 166q2 29 23.5 36t103.5 7q123 0 200.5 2t196.5 2q16 0 62 -2q37 -2 59 -2l47 2q43 2 43 -31q0 -143 -11.5 -180t-58.5 -37q-16 0 -41 2q-35 2 -100 2l-143 -2q-72 0 -217 -2l-117 -2q-55 0 -55 39z" />
<glyph unicode="&#x2011;" horiz-adv-x="880" d="M68 422q0 125 8 166q2 29 23.5 36t103.5 7q123 0 200.5 2t196.5 2q16 0 62 -2q37 -2 59 -2l47 2q43 2 43 -31q0 -143 -11.5 -180t-58.5 -37q-16 0 -41 2q-35 2 -100 2l-143 -2q-72 0 -217 -2l-117 -2q-55 0 -55 39z" />
<glyph unicode="&#x2012;" horiz-adv-x="880" d="M68 422q0 125 8 166q2 29 23.5 36t103.5 7q123 0 200.5 2t196.5 2q16 0 62 -2q37 -2 59 -2l47 2q43 2 43 -31q0 -143 -11.5 -180t-58.5 -37q-16 0 -41 2q-35 2 -100 2l-143 -2q-72 0 -217 -2l-117 -2q-55 0 -55 39z" />
<glyph unicode="&#x2013;" horiz-adv-x="1142" d="M68 432v21l4 63q4 74 10 90.5t31 18.5q55 6 266 6h57q53 -2 96 -2h146q-2 0 57 2h176h23l61 -2h49q31 -6 31 -29q0 -92 -6 -154q-4 -33 -19.5 -41t-76.5 -8h-72l-766 -2q-45 0 -56 6.5t-11 30.5z" />
<glyph unicode="&#x2014;" horiz-adv-x="1683" d="M68 424q0 6 4 31l4 73q4 68 24.5 83.5t122.5 15.5l1080 8q20 0 133 -2l104 -2q74 -2 74 -35q0 -25 -2 -41l-2 -72q-2 -61 -26.5 -73.5t-151.5 -12.5l-363 2l-838 -6q-150 -2 -161 19q-2 4 -2 12z" />
<glyph unicode="&#x2018;" horiz-adv-x="616" d="M106 1352q0 43 117 80l78 24q18 6 31 6q27 0 45 -53q135 -377 135 -418q0 -23 -47 -51q-35 -18 -70 -37q-59 -35 -76 -35q-41 0 -127 216t-86 268z" />
<glyph unicode="&#x2019;" horiz-adv-x="616" d="M70 985q0 14 139 291q55 109 94 168q16 18 37 18l104 -32q105 -31 105 -70q0 -41 -137 -277q-125 -215 -168 -215q-14 0 -72 35q-14 10 -58 35t-44 47z" />
<glyph unicode="&#x201a;" horiz-adv-x="616" d="M70 -242q0 16 57 119q78 141 158 303q27 55 55 56q8 0 27 -7q35 -12 75 -24q107 -33 107 -72q0 -51 -133 -278q-125 -213 -172 -213q-18 0 -111 53q-63 37 -63 63z" />
<glyph unicode="&#x201c;" horiz-adv-x="991" d="M86 1352q0 43 117 80l53 16l25 8q18 6 28 6q33 0 45 -55q23 -92 103 -303l6 -17q29 -76 29 -94q0 -35 -93 -86q-72 -39 -98 -39q-49 0 -132 211t-83 273zM498 1352q0 29 34 45q31 10 60 20l51 19q74 27 76 26q31 0 49 -53q135 -383 135 -416q0 -25 -47 -53 q-35 -18 -70 -37q-59 -35 -73 -35q-35 0 -66 78l-76 197q-74 190 -73 209z" />
<glyph unicode="&#x201d;" horiz-adv-x="991" d="M45 985q0 35 139 291q76 141 92.5 163.5t40.5 22.5q12 0 72 -26q29 -10 88 -31q47 -18 47 -45t-49 -109q-55 -96 -176 -305q-45 -78 -80 -78q-16 0 -72 35q-102 63 -102 82zM465 983q0 23 55 121q41 70 160 303q27 55 55 55q8 0 27 -6l76 -24q106 -35 106 -72 q0 -49 -131 -279q-121 -213 -174 -213q-35 0 -125 58q-49 31 -49 57z" />
<glyph unicode="&#x201e;" horiz-adv-x="991" d="M47 -240q0 39 135 289q72 133 91.5 160t45.5 27q12 0 72 -27q16 -8 75.5 -26.5t59.5 -49.5t-47 -108q-61 -100 -178 -306q-45 -78 -80 -77q-14 0 -71 34q-23 16 -58 35q-45 23 -45 49zM467 -244q0 20 53 123q29 55 86 168q68 131 87.5 160t43.5 29q-2 0 103.5 -31 t105.5 -72q0 -39 -137 -276q-78 -137 -109.5 -176t-60.5 -39q-35 0 -119 53q-53 35 -53 61z" />
<glyph unicode="&#x2022;" horiz-adv-x="1359" d="M399 692q0 119 83 201t204 82q115 0 197 -83t82 -200t-83 -199.5t-200 -82.5t-200 82.5t-83 199.5z" />
<glyph unicode="&#x2026;" horiz-adv-x="1918" d="M96 98q0 72 80 133.5t172 61.5q74 0 135.5 -53.5t61.5 -114.5q0 -66 -69.5 -120t-156.5 -54q-86 0 -154.5 45t-68.5 102zM735 98q0 72 80 133.5t172 61.5q74 0 135.5 -53.5t61.5 -114.5q0 -66 -71 -120t-155 -54q-86 0 -154.5 45t-68.5 102zM1376 98q0 72 80 133.5 t172 61.5q74 0 135.5 -52.5t61.5 -115.5q0 -66 -69.5 -120t-156.5 -54q-84 0 -153.5 45t-69.5 102z" />
<glyph unicode="&#x202f;" horiz-adv-x="381" />
<glyph unicode="&#x2039;" horiz-adv-x="608" d="M35 485q0 25 49 84q119 143 137 168q57 76 90 89.5t164 13.5q100 0 100 -25q0 -14 -126 -170q-47 -51 -136 -162q102 -240 136 -309q6 -12 6 -22q0 -25 -76 -27l-78 -2h-57q-39 0 -53.5 17.5t-63.5 121.5q-92 195 -92 223z" />
<glyph unicode="&#x203a;" horiz-adv-x="608" d="M35 147q0 14 127 170q8 10 61 74q33 37 74 88q-96 225 -135 309q-6 12 -6 23q0 25 82 27l71 2h56q41 0 55 -17.5t63 -122.5q92 -198 92 -223q0 -27 -118 -168q-45 -53 -68 -84q-57 -76 -90 -89t-162 -13q-102 0 -102 24z" />
<glyph unicode="&#x205f;" horiz-adv-x="476" />
<glyph unicode="&#x2122;" horiz-adv-x="1495" d="M18 1251v23q2 18 2 41v12q0 25 6.5 30t39.5 7q92 4 299 4q166 0 198 -2q25 -2 29 -5t4 -22v-55q0 -57 -5 -70.5t-97 -13.5q-27 0 -66 2q-8 -297 -8 -489q0 -27 -19.5 -31t-136.5 -4q-66 0 -80 4t-14 23l2 55l4 147q4 119 10 297h-22l-62 -6h-26q-37 0 -47.5 9.5 t-10.5 43.5zM569 702q0 8 11 66q16 90 96 524q10 53 15 63.5t24 12.5q39 4 84 4q82 0 97 -8t28 -55q10 -39 30 -115q18 -55 68 -240q0 2 59 166q10 31 21 62q14 39 43 112q25 66 49 72q43 6 135 6q53 0 65.5 -11t14.5 -58l4 -86q2 -51 19 -281q12 -200 12 -229 q0 -27 -31 -29l-57 -4q-57 -4 -88 -4q-25 0 -30 13t-5 83q0 133 -6 313q-10 -27 -41 -110q-76 -207 -114 -250t-118 -43q-41 0 -53 55q-33 106 -100 354q-18 -133 -45 -337q-6 -51 -18.5 -60.5t-71.5 -9.5h-27l-37 2q-33 -2 -33 22z" />
<glyph unicode="&#x25fc;" horiz-adv-x="880" d="M0 0v881h881v-881h-881z" />
</font>
</defs>
</svg>
